Unna-BoldItalic.ufo
<glyph name="exclam" format="1">
  <advance width="291"/>
  <unicode hex="0021"/>
  <outline>
    <contour>
      <point x="137" y="637"/>
      <point x="121" y="571"/>
      <point x="121" y="522" type="curve" smooth="yes"/>
      <point x="121" y="512"/>
      <point x="122" y="500"/>
      <point x="123" y="485" type="curve" smooth="yes"/>
      <point x="132" y="401" type="line" smooth="yes"/>
      <point x="136" y="361"/>
      <point x="143" y="319"/>
      <point x="143" y="275" type="curve" smooth="yes"/>
      <point x="143" y="247"/>
      <point x="139" y="227"/>
      <point x="139" y="215" type="curve" smooth="yes"/>
      <point x="139" y="206"/>
      <point x="142" y="201"/>
      <point x="153" y="201" type="curve" smooth="yes"/>
      <point x="165" y="201"/>
      <point x="170" y="210"/>
      <point x="172" y="222" type="curve" smooth="yes"/>
      <point x="181" y="285"/>
      <point x="206" y="345"/>
      <point x="228" y="401" type="curve" smooth="yes"/>
      <point x="262" y="485" type="line" smooth="yes"/>
      <point x="276" y="522"/>
      <point x="283" y="543"/>
      <point x="283" y="569" type="curve" smooth="yes"/>
      <point x="283" y="609"/>
      <point x="262" y="637"/>
      <point x="211" y="637" type="curve" smooth="yes"/>
    </contour>
    <contour>
      <point x="34" y="20"/>
      <point x="70" y="-10"/>
      <point x="124" y="-10" type="curve" smooth="yes"/>
      <point x="187" y="-10"/>
      <point x="237" y="30"/>
      <point x="237" y="80" type="curve" smooth="yes"/>
      <point x="237" y="120"/>
      <point x="201" y="151"/>
      <point x="146" y="151" type="curve" smooth="yes"/>
      <point x="82" y="151"/>
      <point x="34" y="109"/>
      <point x="34" y="60" type="curve" smooth="yes"/>
    </contour>
  </outline>
</glyph>
<glyph name="ampersand" format="1">
  <advance width="590"/>
  <unicode hex="0026"/>
  <outline>
    <contour>
      <point x="383" y="358" type="line"/>
      <point x="328" y="376"/>
      <point x="302" y="412"/>
      <point x="302" y="472" type="curve" smooth="yes"/>
      <point x="302" y="539"/>
      <point x="320" y="574"/>
      <point x="349" y="574" type="curve" smooth="yes"/>
      <point x="364" y="574"/>
      <point x="381" y="564"/>
      <point x="381" y="542" type="curve" smooth="yes"/>
      <point x="381" y="520"/>
      <point x="365" y="502"/>
      <point x="365" y="481" type="curve" smooth="yes"/>
      <point x="365" y="462"/>
      <point x="376" y="439"/>
      <point x="419" y="439" type="curve" smooth="yes"/>
      <point x="472" y="439"/>
      <point x="498" y="477"/>
      <point x="498" y="511" type="curve" smooth="yes"/>
      <point x="498" y="561"/>
      <point x="447" y="607"/>
      <point x="342" y="607" type="curve" smooth="yes"/>
      <point x="250" y="607"/>
      <point x="161" y="559"/>
      <point x="161" y="475" type="curve" smooth="yes"/>
      <point x="161" y="420"/>
      <point x="200" y="376"/>
      <point x="243" y="352" type="curve"/>
      <point x="90" y="349"/>
      <point x="17" y="259"/>
      <point x="17" y="168" type="curve" smooth="yes"/>
      <point x="17" y="60"/>
      <point x="119" y="-9"/>
      <point x="248" y="-9" type="curve" smooth="yes"/>
      <point x="378" y="-9"/>
      <point x="483" y="62"/>
      <point x="483" y="164" type="curve" smooth="yes"/>
      <point x="483" y="216"/>
      <point x="456" y="248"/>
      <point x="415" y="263" type="curve"/>
      <point x="405" y="243" type="line"/>
      <point x="506" y="252"/>
      <point x="600" y="283"/>
      <point x="600" y="352" type="curve" smooth="yes"/>
      <point x="600" y="378"/>
      <point x="579" y="412"/>
      <point x="530" y="412" type="curve" smooth="yes"/>
      <point x="484" y="412"/>
      <point x="465" y="384"/>
      <point x="465" y="359" type="curve" smooth="yes"/>
      <point x="465" y="333"/>
      <point x="481" y="326"/>
      <point x="481" y="310" type="curve" smooth="yes"/>
      <point x="481" y="274"/>
      <point x="427" y="273"/>
      <point x="389" y="267" type="curve" smooth="yes"/>
      <point x="381" y="266" type="line" smooth="yes"/>
      <point x="290" y="255"/>
      <point x="233" y="222"/>
      <point x="233" y="169" type="curve" smooth="yes"/>
      <point x="233" y="124"/>
      <point x="276" y="109"/>
      <point x="303" y="109" type="curve" smooth="yes"/>
      <point x="349" y="109"/>
      <point x="368" y="137"/>
      <point x="368" y="162" type="curve" smooth="yes"/>
      <point x="368" y="190"/>
      <point x="352" y="195"/>
      <point x="352" y="213" type="curve" smooth="yes"/>
      <point x="352" y="227"/>
      <point x="360" y="236"/>
      <point x="381" y="236" type="curve" smooth="yes"/>
      <point x="414" y="236"/>
      <point x="445" y="212"/>
      <point x="445" y="163" type="curve" smooth="yes"/>
      <point x="445" y="86"/>
      <point x="382" y="32"/>
      <point x="292" y="32" type="curve" smooth="yes"/>
      <point x="216" y="32"/>
      <point x="163" y="81"/>
      <point x="163" y="164" type="curve" smooth="yes"/>
      <point x="163" y="241"/>
      <point x="219" y="330"/>
      <point x="341" y="330" type="curve" smooth="yes"/>
      <point x="353" y="330"/>
      <point x="365" y="330"/>
      <point x="378" y="328" type="curve"/>
    </contour>
  </outline>
</glyph>
<glyph name="parenleft" format="1">
  <advance width="287"/>
  <unicode hex="0028"/>
  <outline>
    <contour>
      <point x="18" y="-4"/>
      <point x="88" y="-115"/>
      <point x="172" y="-231" type="curve"/>
      <point x="225" y="-231" type="line"/>
      <point x="193" y="-154"/>
      <point x="175" y="-38"/>
      <point x="175" y="86" type="curve" smooth="yes"/>
      <point x="175" y="338"/>
      <point x="242" y="546"/>
      <point x="357" y="711" type="curve"/>
      <point x="304" y="711" type="line"/>
      <point x="144" y="551"/>
      <point x="18" y="426"/>
      <point x="18" y="166" type="curve" smooth="yes"/>
    </contour>
  </outline>
</glyph>
<glyph name="asterisk" format="1">
  <advance width="327"/>
  <unicode hex="002A"/>
  <outline>
    <contour>
      <point x="279" y="634"/>
      <point x="265" y="612"/>
      <point x="265" y="596" type="curve" smooth="yes"/>
      <point x="265" y="587"/>
      <point x="267" y="579"/>
      <point x="267" y="570" type="curve" smooth="yes"/>
      <point x="267" y="562"/>
      <point x="258" y="538"/>
      <point x="245" y="538" type="curve"/>
      <point x="232" y="538"/>
      <point x="230" y="553"/>
      <point x="230" y="568" type="curve" smooth="yes"/>
      <point x="230" y="580"/>
      <point x="242" y="592"/>
      <point x="242" y="608" type="curve" smooth="yes"/>
      <point x="242" y="618"/>
      <point x="235" y="632"/>
      <point x="217" y="632" type="curve" smooth="yes"/>
      <point x="195" y="632"/>
      <point x="145" y="608"/>
      <point x="145" y="583" type="curve" smooth="yes"/>
      <point x="145" y="568"/>
      <point x="155" y="556"/>
      <point x="173" y="551" type="curve" smooth="yes"/>
      <point x="195" y="545"/>
      <point x="211" y="534"/>
      <point x="201" y="514" type="curve"/>
      <point x="198" y="510"/>
      <point x="192" y="508"/>
      <point x="186" y="508" type="curve" smooth="yes"/>
      <point x="156" y="508"/>
      <point x="156" y="541"/>
      <point x="129" y="541" type="curve" smooth="yes"/>
      <point x="106" y="541"/>
      <point x="88" y="523"/>
      <point x="88" y="477" type="curve" smooth="yes"/>
      <point x="88" y="452"/>
      <point x="96" y="443"/>
      <point x="115" y="443" type="curve" smooth="yes"/>
      <point x="142" y="443"/>
      <point x="152" y="476"/>
      <point x="182" y="476" type="curve" smooth="yes"/>
      <point x="188" y="476"/>
      <point x="193" y="474"/>
      <point x="195" y="470" type="curve"/>
      <point x="202" y="456"/>
      <point x="181" y="439"/>
      <point x="157" y="433" type="curve" smooth="yes"/>
      <point x="137" y="427"/>
      <point x="120" y="416"/>
      <point x="120" y="397" type="curve" smooth="yes"/>
      <point x="120" y="376"/>
      <point x="159" y="350"/>
      <point x="178" y="350" type="curve" smooth="yes"/>
      <point x="196" y="350"/>
      <point x="211" y="371"/>
      <point x="211" y="387" type="curve" smooth="yes"/>
      <point x="211" y="396"/>
      <point x="209" y="405"/>
      <point x="209" y="414" type="curve" smooth="yes"/>
      <point x="209" y="427"/>
      <point x="219" y="446"/>
      <point x="232" y="446" type="curve"/>
      <point x="242" y="446"/>
      <point x="246" y="431"/>
      <point x="246" y="416" type="curve" smooth="yes"/>
      <point x="246" y="398"/>
      <point x="237" y="388"/>
      <point x="237" y="372" type="curve" smooth="yes"/>
      <point x="237" y="362"/>
      <point x="247" y="352"/>
      <point x="259" y="352" type="curve" smooth="yes"/>
      <point x="281" y="352"/>
      <point x="331" y="376"/>
      <point x="331" y="400" type="curve" smooth="yes"/>
      <point x="331" y="421"/>
      <point x="319" y="427"/>
      <point x="296" y="435" type="curve" smooth="yes"/>
      <point x="278" y="441"/>
      <point x="266" y="457"/>
      <point x="275" y="470" type="curve"/>
      <point x="279" y="474"/>
      <point x="284" y="476"/>
      <point x="290" y="476" type="curve" smooth="yes"/>
      <point x="320" y="476"/>
      <point x="320" y="443"/>
      <point x="347" y="443" type="curve" smooth="yes"/>
      <point x="370" y="443"/>
      <point x="389" y="461"/>
      <point x="389" y="507" type="curve" smooth="yes"/>
      <point x="389" y="532"/>
      <point x="380" y="541"/>
      <point x="361" y="541" type="curve" smooth="yes"/>
      <point x="334" y="541"/>
      <point x="324" y="508"/>
      <point x="294" y="508" type="curve" smooth="yes"/>
      <point x="288" y="508"/>
      <point x="284" y="510"/>
      <point x="281" y="514" type="curve"/>
      <point x="274" y="528"/>
      <point x="300" y="546"/>
      <point x="326" y="553" type="curve" smooth="yes"/>
      <point x="343" y="557"/>
      <point x="356" y="571"/>
      <point x="356" y="587" type="curve" smooth="yes"/>
      <point x="356" y="608"/>
      <point x="317" y="634"/>
      <point x="298" y="634" type="curve" smooth="yes"/>
    </contour>
  </outline>
</glyph>
<glyph name="plus" format="1">
  <advance width="458"/>
  <unicode hex="002B"/>
  <outline>
    <contour>
      <point x="239" y="488" type="line"/>
      <point x="213" y="308" type="line"/>
      <point x="32" y="308" type="line"/>
      <point x="25" y="254" type="line"/>
      <point x="206" y="254" type="line"/>
      <point x="180" y="73" type="line"/>
      <point x="239" y="73" type="line"/>
      <point x="265" y="254" type="line"/>
      <point x="445" y="254" type="line"/>
      <point x="452" y="308" type="line"/>
      <point x="272" y="308" type="line"/>
      <point x="298" y="488" type="line"/>
    </contour>
  </outline>
</glyph>
<glyph name="comma" format="1">
  <advance width="285"/>
  <unicode hex="002C"/>
  <outline>
    <contour>
      <point x="52" y="139"/>
      <point x="18" y="92"/>
      <point x="18" y="44" type="curve" smooth="yes"/>
      <point x="18" y="10"/>
      <point x="37" y="-8"/>
      <point x="74" y="-8" type="curve" smooth="yes"/>
      <point x="98" y="-8"/>
      <point x="108" y="-16"/>
      <point x="108" y="-32" type="curve" smooth="yes"/>
      <point x="108" y="-74"/>
      <point x="69" y="-116"/>
      <point x="30" y="-136" type="curve"/>
      <point x="47" y="-160" type="line"/>
      <point x="131" y="-123"/>
      <point x="218" y="-50"/>
      <point x="218" y="40" type="curve" smooth="yes"/>
      <point x="218" y="91"/>
      <point x="182" y="139"/>
      <point x="117" y="139" type="curve" smooth="yes"/>
    </contour>
  </outline>
</glyph>
<glyph name="two" format="1">
  <advance width="496"/>
  <unicode hex="0032"/>
  <outline>
    <contour>
      <point x="154" y="607"/>
      <point x="71" y="540"/>
      <point x="71" y="465" type="curve" smooth="yes"/>
      <point x="71" y="430"/>
      <point x="92" y="403"/>
      <point x="136" y="403" type="curve" smooth="yes"/>
      <point x="177" y="403"/>
      <point x="211" y="424"/>
      <point x="211" y="469" type="curve" smooth="yes"/>
      <point x="211" y="482"/>
      <point x="209" y="494"/>
      <point x="209" y="507" type="curve" smooth="yes"/>
      <point x="209" y="551"/>
      <point x="239" y="570"/>
      <point x="276" y="570" type="curve" smooth="yes"/>
      <point x="314" y="570"/>
      <point x="342" y="549"/>
      <point x="342" y="494" type="curve" smooth="yes"/>
      <point x="342" y="391"/>
      <point x="284" y="306"/>
      <point x="160" y="205" type="curve" smooth="yes"/>
      <point x="21" y="91" type="line"/>
      <point x="12" y="0" type="line"/>
      <point x="352" y="0" type="line" smooth="yes"/>
      <point x="372" y="0"/>
      <point x="406" y="-1"/>
      <point x="412" y="-3" type="curve"/>
      <point x="417" y="21"/>
      <point x="434" y="103"/>
      <point x="457" y="170" type="curve"/>
      <point x="417" y="170" type="line"/>
      <point x="403" y="121"/>
      <point x="368" y="106"/>
      <point x="298" y="106" type="curve" smooth="yes"/>
      <point x="65" y="106" type="line"/>
      <point x="62" y="78" type="line"/>
      <point x="253" y="199" type="line" smooth="yes"/>
      <point x="446" y="323"/>
      <point x="489" y="388"/>
      <point x="489" y="474" type="curve" smooth="yes"/>
      <point x="489" y="554"/>
      <point x="404" y="607"/>
      <point x="290" y="607" type="curve" smooth="yes"/>
    </contour>
  </outline>
</glyph>
<glyph name="three" format="1">
  <advance width="500"/>
  <unicode hex="0033"/>
  <outline>
    <contour>
      <point x="425" y="345"/>
      <point x="489" y="426"/>
      <point x="489" y="495" type="curve" smooth="yes"/>
      <point x="489" y="562"/>
      <point x="409" y="607"/>
      <point x="290" y="607" type="curve" smooth="yes"/>
      <point x="153" y="607"/>
      <point x="62" y="554"/>
      <point x="62" y="475" type="curve" smooth="yes"/>
      <point x="62" y="445"/>
      <point x="79" y="417"/>
      <point x="128" y="417" type="curve" smooth="yes"/>
      <point x="160" y="417"/>
      <point x="200" y="434"/>
      <point x="200" y="482" type="curve" smooth="yes"/>
      <point x="200" y="494"/>
      <point x="197" y="503"/>
      <point x="197" y="514" type="curve" smooth="yes"/>
      <point x="197" y="549"/>
      <point x="233" y="570"/>
      <point x="272" y="570" type="curve" smooth="yes"/>
      <point x="319" y="570"/>
      <point x="340" y="540"/>
      <point x="340" y="501" type="curve" smooth="yes"/>
      <point x="340" y="426"/>
      <point x="271" y="332"/>
      <point x="144" y="332" type="curve"/>
      <point x="139" y="298" type="line"/>
      <point x="276" y="284"/>
      <point x="333" y="256"/>
      <point x="333" y="184" type="curve" smooth="yes"/>
      <point x="333" y="131"/>
      <point x="298" y="28"/>
      <point x="190" y="28" type="curve" smooth="yes"/>
      <point x="157" y="28"/>
      <point x="122" y="40"/>
      <point x="122" y="72" type="curve" smooth="yes"/>
      <point x="122" y="86"/>
      <point x="138" y="120"/>
      <point x="138" y="134" type="curve" smooth="yes"/>
      <point x="138" y="163"/>
      <point x="114" y="181"/>
      <point x="80" y="181" type="curve" smooth="yes"/>
      <point x="26" y="181"/>
      <point x="-6" y="144"/>
      <point x="-6" y="98" type="curve" smooth="yes"/>
      <point x="-6" y="33"/>
      <point x="72" y="-10"/>
      <point x="190" y="-10" type="curve" smooth="yes"/>
      <point x="366" y="-10"/>
      <point x="483" y="70"/>
      <point x="483" y="191" type="curve" smooth="yes"/>
      <point x="483" y="277"/>
      <point x="404" y="320"/>
      <point x="267" y="322" type="curve"/>
      <point x="268" y="325" type="line"/>
    </contour>
  </outline>
</glyph>
<glyph name="four" format="1">
  <advance width="491"/>
  <unicode hex="0034"/>
  <outline>
    <contour>
      <point x="396" y="604" type="line"/>
      <point x="372" y="576" type="line"/>
      <point x="350" y="554" type="line"/>
      <point x="76" y="276" type="line"/>
      <point x="42" y="245" type="line" smooth="yes"/>
      <point x="29" y="233"/>
      <point x="18" y="223"/>
      <point x="7" y="215" type="curve"/>
      <point x="-3" y="144" type="line"/>
      <point x="259" y="144" type="line"/>
      <point x="246" y="53" type="line" smooth="yes"/>
      <point x="244" y="40"/>
      <point x="237" y="33"/>
      <point x="223" y="33" type="curve" smooth="yes"/>
      <point x="153" y="34" type="line"/>
      <point x="149" y="0" type="line"/>
      <point x="438" y="0" type="line"/>
      <point x="442" y="34" type="line"/>
      <point x="400" y="33" type="line" smooth="yes"/>
      <point x="387" y="33"/>
      <point x="381" y="40"/>
      <point x="383" y="53" type="curve" smooth="yes"/>
      <point x="396" y="144" type="line"/>
      <point x="475" y="144" type="line"/>
      <point x="486" y="224" type="line"/>
      <point x="407" y="224" type="line"/>
      <point x="460" y="604" type="line"/>
    </contour>
    <contour>
      <point x="270" y="224" type="line"/>
      <point x="74" y="224" type="line"/>
      <point x="303" y="455" type="line"/>
    </contour>
  </outline>
</glyph>
<glyph name="seven" format="1">
  <advance width="455"/>
  <unicode hex="0037"/>
  <outline>
    <contour>
      <point x="88" y="576"/>
      <point x="63" y="486"/>
      <point x="52" y="439" type="curve"/>
      <point x="90" y="439" type="line"/>
      <point x="101" y="478"/>
      <point x="128" y="491"/>
      <point x="185" y="491" type="curve" smooth="yes"/>
      <point x="432" y="491" type="line"/>
      <point x="467" y="562" type="line"/>
      <point x="186" y="331"/>
      <point x="130" y="152"/>
      <point x="107" y="0" type="curve"/>
      <point x="250" y="0" type="line"/>
      <point x="256" y="148"/>
      <point x="304" y="360"/>
      <point x="500" y="549" type="curve"/>
      <point x="501" y="597" type="line"/>
      <point x="219" y="597" type="line" smooth="yes"/>
      <point x="154" y="597"/>
      <point x="104" y="597"/>
      <point x="91" y="601" type="curve"/>
    </contour>
  </outline>
</glyph>
<glyph name="at" format="1">
  <advance width="791"/>
  <unicode hex="0040"/>
  <outline>
    <contour>
      <point x="240" y="606"/>
      <point x="13" y="371"/>
      <point x="13" y="135" type="curve" smooth="yes"/>
      <point x="13" y="-41"/>
      <point x="141" y="-156"/>
      <point x="351" y="-156" type="curve" smooth="yes"/>
      <point x="492" y="-157"/>
      <point x="602" y="-118"/>
      <point x="717" y="-18" type="curve"/>
      <point x="696" y="13" type="line"/>
      <point x="591" y="-78"/>
      <point x="492" y="-118"/>
      <point x="366" y="-117" type="curve" smooth="yes"/>
      <point x="172" y="-117"/>
      <point x="59" y="-11"/>
      <point x="59" y="138" type="curve" smooth="yes"/>
      <point x="59" y="324"/>
      <point x="222" y="567"/>
      <point x="501" y="567" type="curve" smooth="yes"/>
      <point x="645" y="567"/>
      <point x="744" y="462"/>
      <point x="744" y="334" type="curve" smooth="yes"/>
      <point x="744" y="212"/>
      <point x="638" y="82"/>
      <point x="582" y="75" type="curve"/>
      <point x="573" y="75"/>
      <point x="569" y="81"/>
      <point x="569" y="92" type="curve" smooth="yes"/>
      <point x="569" y="128"/>
      <point x="588" y="241"/>
      <point x="613" y="340" type="curve" smooth="yes"/>
      <point x="637" y="435" type="line"/>
      <point x="485" y="418" type="line"/>
      <point x="480" y="398" type="line"/>
      <point x="467" y="425"/>
      <point x="437" y="437"/>
      <point x="408" y="437" type="curve" smooth="yes"/>
      <point x="263" y="437"/>
      <point x="153" y="279"/>
      <point x="153" y="112" type="curve" smooth="yes"/>
      <point x="153" y="36"/>
      <point x="186" y="-10"/>
      <point x="245" y="-10" type="curve" smooth="yes"/>
      <point x="308" y="-10"/>
      <point x="386" y="34"/>
      <point x="438" y="167" type="curve"/>
      <point x="425" y="111"/>
      <point x="416" y="61"/>
      <point x="416" y="36" type="curve" smooth="yes"/>
      <point x="416" y="5"/>
      <point x="422" y="-10"/>
      <point x="461" y="-10" type="curve" smooth="yes"/>
      <point x="604" y="-10"/>
      <point x="786" y="164"/>
      <point x="786" y="341" type="curve" smooth="yes"/>
      <point x="786" y="491"/>
      <point x="673" y="606"/>
      <point x="506" y="606" type="curve" smooth="yes"/>
    </contour>
    <contour>
      <point x="455" y="407"/>
      <point x="468" y="383"/>
      <point x="468" y="355" type="curve" smooth="yes"/>
      <point x="468" y="245"/>
      <point x="375" y="65"/>
      <point x="334" y="65" type="curve" smooth="yes"/>
      <point x="314" y="65"/>
      <point x="302" y="88"/>
      <point x="302" y="133" type="curve" smooth="yes"/>
      <point x="302" y="167"/>
      <point x="308" y="206"/>
      <point x="319" y="244" type="curve" smooth="yes"/>
      <point x="344" y="343"/>
      <point x="386" y="407"/>
      <point x="428" y="407" type="curve" smooth="yes"/>
    </contour>
  </outline>
</glyph>
<glyph name="A" format="1">
  <advance width="617"/>
  <unicode hex="0041"/>
  <outline>
    <contour>
      <point x="331" y="607" type="line"/>
      <point x="65" y="114" type="line" smooth="yes"/>
      <point x="48" y="82"/>
      <point x="24" y="37"/>
      <point x="-7" y="37" type="curve" smooth="yes"/>
      <point x="-41" y="39" type="line"/>
      <point x="-46" y="0" type="line"/>
      <point x="137" y="0" type="line"/>
      <point x="142" y="39" type="line"/>
      <point x="97" y="36" type="line" smooth="yes"/>
      <point x="83" y="35"/>
      <point x="78" y="41"/>
      <point x="78" y="51" type="curve" smooth="yes"/>
      <point x="78" y="65"/>
      <point x="87" y="86"/>
      <point x="98" y="106" type="curve" smooth="yes"/>
      <point x="308" y="498" type="line"/>
      <point x="387" y="607" type="line"/>
    </contour>
    <contour>
      <point x="138" y="216" type="line"/>
      <point x="123" y="178" type="line"/>
      <point x="369" y="178" type="line"/>
      <point x="364" y="216" type="line"/>
    </contour>
    <contour>
      <point x="273" y="453" type="line"/>
      <point x="376" y="100" type="line" smooth="yes"/>
      <point x="379" y="88"/>
      <point x="382" y="76"/>
      <point x="382" y="65" type="curve" smooth="yes"/>
      <point x="381" y="48"/>
      <point x="373" y="35"/>
      <point x="349" y="37" type="curve" smooth="yes"/>
      <point x="304" y="39" type="line"/>
      <point x="299" y="0" type="line"/>
      <point x="611" y="0" type="line"/>
      <point x="616" y="39" type="line"/>
      <point x="593" y="37" type="line"/>
      <point x="588" y="37" type="line" smooth="yes"/>
      <point x="556" y="37"/>
      <point x="546" y="67"/>
      <point x="533" y="112" type="curve" smooth="yes"/>
      <point x="387" y="607" type="line"/>
    </contour>
    <contour>
      <point x="565" y="14" type="move" name="ogonek"/>
    </contour>
    <contour>
      <point x="353" y="598" type="move" name="top"/>
    </contour>
  </outline>
</glyph>
<glyph name="D" format="1">
  <advance width="643"/>
  <unicode hex="0044"/>
  <outline>
    <contour>
      <point x="89" y="597" type="line"/>
      <point x="83" y="557" type="line"/>
      <point x="118" y="559" type="line" smooth="yes"/>
      <point x="132" y="560"/>
      <point x="135" y="547"/>
      <point x="134" y="538" type="curve" smooth="yes"/>
      <point x="66" y="59" type="line"/>
      <point x="65" y="47"/>
      <point x="59" y="36"/>
      <point x="48" y="37" type="curve"/>
      <point x="10" y="39" type="line"/>
      <point x="5" y="0" type="line"/>
      <point x="267" y="0" type="line" smooth="yes"/>
      <point x="519" y="0"/>
      <point x="631" y="162"/>
      <point x="631" y="333" type="curve" smooth="yes"/>
      <point x="631" y="498"/>
      <point x="538" y="597"/>
      <point x="339" y="597" type="curve" smooth="yes"/>
    </contour>
    <contour>
      <point x="427" y="559"/>
      <point x="472" y="502"/>
      <point x="472" y="355" type="curve" smooth="yes"/>
      <point x="472" y="306"/>
      <point x="466" y="251"/>
      <point x="450" y="202" type="curve" smooth="yes"/>
      <point x="421" y="112"/>
      <point x="360" y="38"/>
      <point x="243" y="38" type="curve" smooth="yes"/>
      <point x="228" y="38" type="line" smooth="yes"/>
      <point x="220" y="38"/>
      <point x="217" y="42"/>
      <point x="218" y="51" type="curve" smooth="yes"/>
      <point x="288" y="546" type="line" smooth="yes"/>
      <point x="289" y="555"/>
      <point x="294" y="559"/>
      <point x="302" y="559" type="curve" smooth="yes"/>
      <point x="317" y="559" type="line" smooth="yes"/>
    </contour>
    <contour>
      <point x="282" y="299" type="move" name="center"/>
    </contour>
    <contour>
      <point x="342" y="598" type="move" name="top"/>
    </contour>
  </outline>
</glyph>
<glyph name="I" format="1">
  <advance width="330"/>
  <unicode hex="0049"/>
  <outline>
    <contour>
      <point x="89" y="597" type="line"/>
      <point x="83" y="557" type="line"/>
      <point x="118" y="559" type="line" smooth="yes"/>
      <point x="131" y="560"/>
      <point x="135" y="549"/>
      <point x="134" y="538" type="curve"/>
      <point x="66" y="59" type="line" smooth="yes"/>
      <point x="64" y="44"/>
      <point x="57" y="36"/>
      <point x="44" y="37" type="curve" smooth="yes"/>
      <point x="10" y="39" type="line"/>
      <point x="5" y="0" type="line"/>
      <point x="265" y="0" type="line"/>
      <point x="270" y="39" type="line"/>
      <point x="236" y="37" type="line" smooth="yes"/>
      <point x="223" y="36"/>
      <point x="217" y="44"/>
      <point x="219" y="59" type="curve" smooth="yes"/>
      <point x="287" y="538" type="line"/>
      <point x="288" y="550"/>
      <point x="298" y="560"/>
      <point x="310" y="559" type="curve" smooth="yes"/>
      <point x="343" y="557" type="line"/>
      <point x="349" y="597" type="line"/>
    </contour>
    <contour>
      <point x="229" y="14" type="move" name="ogonek"/>
    </contour>
    <contour>
      <point x="211" y="598" type="move" name="top"/>
    </contour>
  </outline>
</glyph>
<glyph name="K" format="1">
  <advance width="646"/>
  <unicode hex="004B"/>
  <outline>
    <contour>
      <point x="89" y="597" type="line"/>
      <point x="83" y="557" type="line"/>
      <point x="118" y="559" type="line" smooth="yes"/>
      <point x="131" y="560"/>
      <point x="135" y="550"/>
      <point x="134" y="538" type="curve"/>
      <point x="66" y="59" type="line" smooth="yes"/>
      <point x="64" y="44"/>
      <point x="57" y="36"/>
      <point x="44" y="37" type="curve" smooth="yes"/>
      <point x="10" y="39" type="line"/>
      <point x="5" y="0" type="line"/>
      <point x="275" y="0" type="line"/>
      <point x="280" y="39" type="line"/>
      <point x="236" y="37" type="line" smooth="yes"/>
      <point x="223" y="36"/>
      <point x="217" y="44"/>
      <point x="219" y="59" type="curve" smooth="yes"/>
      <point x="286" y="537" type="line"/>
      <point x="289" y="552"/>
      <point x="297" y="559"/>
      <point x="310" y="559" type="curve"/>
      <point x="358" y="557" type="line"/>
      <point x="364" y="597" type="line"/>
    </contour>
    <contour>
      <point x="265" y="275" type="line"/>
      <point x="373" y="61" type="line" smooth="yes"/>
      <point x="382" y="42"/>
      <point x="371" y="35"/>
      <point x="354" y="36" type="curve" smooth="yes"/>
      <point x="314" y="39" type="line"/>
      <point x="309" y="0" type="line"/>
      <point x="610" y="0" type="line"/>
      <point x="615" y="39" type="line"/>
      <point x="605" y="37"/>
      <point x="596" y="36"/>
      <point x="586" y="36" type="curve" smooth="yes"/>
      <point x="577" y="36"/>
      <point x="569" y="41"/>
      <point x="564" y="50" type="curve" smooth="yes"/>
      <point x="386" y="396" type="line"/>
    </contour>
    <contour>
      <point x="475" y="597" type="line"/>
      <point x="469" y="557" type="line"/>
      <point x="504" y="559" type="line"/>
      <point x="510" y="559"/>
      <point x="512" y="557"/>
      <point x="512" y="552" type="curve" smooth="yes"/>
      <point x="512" y="549"/>
      <point x="510" y="542"/>
      <point x="492" y="523" type="curve" smooth="yes"/>
      <point x="242" y="270" type="line"/>
      <point x="234" y="213" type="line"/>
      <point x="553" y="530" type="line" smooth="yes"/>
      <point x="579" y="556"/>
      <point x="596" y="560"/>
      <point x="616" y="559" type="curve" smooth="yes"/>
      <point x="649" y="557" type="line"/>
      <point x="655" y="597" type="line"/>
    </contour>
    <contour>
      <point x="389" y="598" type="move" name="top"/>
    </contour>
    <contour>
      <point x="300" y="0" type="move" name="bottom"/>
    </contour>
  </outline>
</glyph>
<glyph name="N" format="1">
  <advance width="682"/>
  <unicode hex="004E"/>
  <outline>
    <contour>
      <point x="535" y="597" type="line"/>
      <point x="531" y="567" type="line"/>
      <point x="583" y="569" type="line" smooth="yes"/>
      <point x="594" y="569"/>
      <point x="599" y="562"/>
      <point x="597" y="549" type="curve" smooth="yes"/>
      <point x="547" y="193" type="line"/>
      <point x="307" y="597" type="line"/>
      <point x="84" y="597" type="line"/>
      <point x="80" y="567" type="line"/>
      <point x="119" y="569" type="line"/>
      <point x="129" y="570"/>
      <point x="135" y="562"/>
      <point x="136" y="554" type="curve"/>
      <point x="66" y="49" type="line" smooth="yes"/>
      <point x="64" y="34"/>
      <point x="56" y="27"/>
      <point x="43" y="27" type="curve"/>
      <point x="4" y="29" type="line"/>
      <point x="0" y="0" type="line"/>
      <point x="171" y="0" type="line"/>
      <point x="175" y="29" type="line"/>
      <point x="126" y="27" type="line"/>
      <point x="113" y="27"/>
      <point x="108" y="34"/>
      <point x="110" y="49" type="curve" smooth="yes"/>
      <point x="176" y="525" type="line"/>
      <point x="493" y="-6" type="line"/>
      <point x="563" y="-6" type="line"/>
      <point x="641" y="548" type="line" smooth="yes"/>
      <point x="643" y="562"/>
      <point x="650" y="569"/>
      <point x="661" y="569" type="curve" smooth="yes"/>
      <point x="702" y="567" type="line"/>
      <point x="706" y="597" type="line"/>
    </contour>
    <contour>
      <point x="378" y="598" type="move" name="top"/>
    </contour>
    <contour>
      <point x="318" y="0" type="move" name="bottom"/>
    </contour>
  </outline>
</glyph>
<glyph name="P" format="1">
  <advance width="556"/>
  <unicode hex="0050"/>
  <outline>
    <contour>
      <point x="89" y="597" type="line"/>
      <point x="83" y="557" type="line"/>
      <point x="114" y="559" type="line" smooth="yes"/>
      <point x="133" y="560"/>
      <point x="136" y="552"/>
      <point x="133" y="537" type="curve"/>
      <point x="66" y="59" type="line" smooth="yes"/>
      <point x="64" y="44"/>
      <point x="57" y="36"/>
      <point x="44" y="37" type="curve" smooth="yes"/>
      <point x="10" y="39" type="line"/>
      <point x="5" y="0" type="line"/>
      <point x="280" y="0" type="line"/>
      <point x="285" y="39" type="line"/>
      <point x="236" y="37" type="line"/>
      <point x="223" y="37"/>
      <point x="217" y="44"/>
      <point x="219" y="59" type="curve" smooth="yes"/>
      <point x="245" y="243" type="line"/>
      <point x="340" y="243" type="line" smooth="yes"/>
      <point x="475" y="243"/>
      <point x="567" y="328"/>
      <point x="567" y="453" type="curve" smooth="yes"/>
      <point x="567" y="549"/>
      <point x="501" y="597"/>
      <point x="361" y="597" type="curve" smooth="yes"/>
    </contour>
    <contour>
      <point x="381" y="559"/>
      <point x="406" y="517"/>
      <point x="406" y="454" type="curve" smooth="yes"/>
      <point x="406" y="358"/>
      <point x="353" y="281"/>
      <point x="295" y="281" type="curve" smooth="yes"/>
      <point x="250" y="281" type="line"/>
      <point x="288" y="547" type="line" smooth="yes"/>
      <point x="289" y="554"/>
      <point x="297" y="559"/>
      <point x="302" y="559" type="curve" smooth="yes"/>
      <point x="337" y="559" type="line" smooth="yes"/>
    </contour>
  </outline>
</glyph>
<glyph name="Q" format="1">
  <advance width="686"/>
  <unicode hex="0051"/>
  <outline>
    <contour>
      <point x="642" y="-86" type="line"/>
      <point x="613" y="-93"/>
      <point x="588" y="-98"/>
      <point x="564" y="-98" type="curve" smooth="yes"/>
      <point x="515" y="-98"/>
      <point x="472" y="-73"/>
      <point x="412" y="14" type="curve"/>
      <point x="364" y="9" type="line"/>
      <point x="306" y="2" type="line"/>
      <point x="378" y="-127"/>
      <point x="438" y="-186"/>
      <point x="506" y="-186" type="curve" smooth="yes"/>
      <point x="549" y="-186"/>
      <point x="595" y="-162"/>
      <point x="649" y="-112" type="curve"/>
    </contour>
    <component base="O"/>
  </outline>
</glyph>
<glyph name="R" format="1">
  <advance width="595"/>
  <unicode hex="0052"/>
  <outline>
    <contour>
      <point x="89" y="597" type="line"/>
      <point x="83" y="557" type="line"/>
      <point x="115" y="559" type="line" smooth="yes"/>
      <point x="131" y="560"/>
      <point x="135" y="549"/>
      <point x="134" y="538" type="curve"/>
      <point x="66" y="59" type="line" smooth="yes"/>
      <point x="64" y="44"/>
      <point x="57" y="36"/>
      <point x="44" y="37" type="curve" smooth="yes"/>
      <point x="10" y="39" type="line"/>
      <point x="5" y="0" type="line"/>
      <point x="280" y="0" type="line"/>
      <point x="285" y="39" type="line"/>
      <point x="236" y="37" type="line"/>
      <point x="223" y="37"/>
      <point x="217" y="44"/>
      <point x="219" y="59" type="curve" smooth="yes"/>
      <point x="248" y="266" type="line"/>
      <point x="281" y="266" type="line"/>
      <point x="360" y="266"/>
      <point x="359" y="210"/>
      <point x="359" y="164" type="curve" smooth="yes"/>
      <point x="359" y="141"/>
      <point x="351" y="88"/>
      <point x="351" y="60" type="curve" smooth="yes"/>
      <point x="351" y="10"/>
      <point x="379" y="-10"/>
      <point x="435" y="-10" type="curve" smooth="yes"/>
      <point x="479" y="-10"/>
      <point x="530" y="5"/>
      <point x="558" y="18" type="curve"/>
      <point x="550" y="42" type="line"/>
      <point x="544" y="38"/>
      <point x="537" y="36"/>
      <point x="529" y="36" type="curve" smooth="yes"/>
      <point x="508" y="36"/>
      <point x="500" y="48"/>
      <point x="500" y="75" type="curve" smooth="yes"/>
      <point x="500" y="94"/>
      <point x="504" y="147"/>
      <point x="504" y="169" type="curve" smooth="yes"/>
      <point x="504" y="238"/>
      <point x="474" y="286"/>
      <point x="401" y="294" type="curve"/>
      <point x="493" y="321"/>
      <point x="551" y="382"/>
      <point x="551" y="471" type="curve" smooth="yes"/>
      <point x="551" y="556"/>
      <point x="488" y="597"/>
      <point x="360" y="597" type="curve" smooth="yes"/>
    </contour>
    <contour>
      <point x="374" y="559"/>
      <point x="401" y="531"/>
      <point x="401" y="466" type="curve" smooth="yes"/>
      <point x="401" y="369"/>
      <point x="358" y="303"/>
      <point x="307" y="303" type="curve" smooth="yes"/>
      <point x="254" y="303" type="line"/>
      <point x="288" y="549" type="line" smooth="yes"/>
      <point x="289" y="556"/>
      <point x="294" y="559"/>
      <point x="302" y="559" type="curve" smooth="yes"/>
      <point x="324" y="559" type="line" smooth="yes"/>
    </contour>
    <contour>
      <point x="354" y="598" type="move" name="top"/>
    </contour>
    <contour>
      <point x="271" y="0" type="move" name="bottom"/>
    </contour>
  </outline>
</glyph>
<glyph name="T" format="1">
  <advance width="549"/>
  <unicode hex="0054"/>
  <outline>
    <contour>
      <point x="583" y="599"/>
      <point x="567" y="598"/>
      <point x="538" y="598" type="curve" smooth="yes"/>
      <point x="119" y="598" type="line" smooth="yes"/>
      <point x="95" y="598"/>
      <point x="78" y="599"/>
      <point x="69" y="600" type="curve"/>
      <point x="47" y="444" type="line"/>
      <point x="83" y="444" type="line"/>
      <point x="94" y="522"/>
      <point x="135" y="560"/>
      <point x="224" y="560" type="curve" smooth="yes"/>
      <point x="235" y="560" type="line" smooth="yes"/>
      <point x="243" y="560"/>
      <point x="246" y="556"/>
      <point x="245" y="548" type="curve" smooth="yes"/>
      <point x="177" y="62" type="line" smooth="yes"/>
      <point x="175" y="49"/>
      <point x="166" y="37"/>
      <point x="154" y="37" type="curve"/>
      <point x="100" y="39" type="line"/>
      <point x="95" y="0" type="line"/>
      <point x="394" y="0" type="line"/>
      <point x="399" y="39" type="line"/>
      <point x="346" y="37" type="line"/>
      <point x="333" y="37"/>
      <point x="327" y="44"/>
      <point x="329" y="59" type="curve" smooth="yes"/>
      <point x="398" y="549" type="line"/>
      <point x="400" y="556"/>
      <point x="405" y="560"/>
      <point x="412" y="560" type="curve" smooth="yes"/>
      <point x="424" y="560" type="line" smooth="yes"/>
      <point x="513" y="560"/>
      <point x="541" y="522"/>
      <point x="530" y="444" type="curve"/>
      <point x="566" y="444" type="line"/>
      <point x="588" y="600" type="line"/>
    </contour>
    <contour>
      <point x="277" y="299" type="move" name="center"/>
    </contour>
    <contour>
      <point x="238" y="0" type="move" name="bottom"/>
    </contour>
    <contour>
      <point x="317" y="598" type="move" name="top"/>
    </contour>
  </outline>
</glyph>
<glyph name="U" format="1">
  <advance width="661"/>
  <unicode hex="0055"/>
  <outline>
    <contour>
      <point x="519" y="597" type="line"/>
      <point x="513" y="557" type="line"/>
      <point x="563" y="559" type="line"/>
      <point x="574" y="560"/>
      <point x="579" y="551"/>
      <point x="578" y="538" type="curve"/>
      <point x="531" y="204" type="line" smooth="yes"/>
      <point x="517" y="105"/>
      <point x="476" y="34"/>
      <point x="366" y="34" type="curve" smooth="yes"/>
      <point x="274" y="34"/>
      <point x="227" y="82"/>
      <point x="243" y="199" type="curve" smooth="yes"/>
      <point x="291" y="539" type="line"/>
      <point x="292" y="551"/>
      <point x="302" y="560"/>
      <point x="314" y="559" type="curve"/>
      <point x="362" y="557" type="line"/>
      <point x="368" y="597" type="line"/>
      <point x="89" y="597" type="line"/>
      <point x="83" y="557" type="line"/>
      <point x="122" y="559" type="line"/>
      <point x="133" y="560"/>
      <point x="139" y="549"/>
      <point x="138" y="538" type="curve"/>
      <point x="90" y="199" type="line" smooth="yes"/>
      <point x="69" y="52"/>
      <point x="156" y="-10"/>
      <point x="332" y="-10" type="curve" smooth="yes"/>
      <point x="489" y="-10"/>
      <point x="557" y="73"/>
      <point x="576" y="208" type="curve" smooth="yes"/>
      <point x="623" y="539" type="line"/>
      <point x="624" y="551"/>
      <point x="634" y="560"/>
      <point x="646" y="559" type="curve" smooth="yes"/>
      <point x="684" y="557" type="line"/>
      <point x="690" y="597" type="line"/>
    </contour>
    <contour>
      <point x="455" y="14" type="move" name="ogonek"/>
    </contour>
    <contour>
      <point x="408" y="598" type="move" name="top"/>
    </contour>
  </outline>
</glyph>
<glyph name="W" format="1">
  <advance width="920"/>
  <unicode hex="0057"/>
  <outline>
    <contour>
      <point x="832" y="597" type="line"/>
      <point x="825" y="557" type="line"/>
      <point x="878" y="559" type="line"/>
      <point x="889" y="560"/>
      <point x="891" y="550"/>
      <point x="886" y="539" type="curve" smooth="yes"/>
      <point x="694" y="143" type="line"/>
      <point x="709" y="143" type="line"/>
      <point x="624" y="537" type="line"/>
      <point x="623" y="545"/>
      <point x="627" y="559"/>
      <point x="638" y="559" type="curve"/>
      <point x="679" y="557" type="line"/>
      <point x="685" y="597" type="line"/>
      <point x="425" y="597" type="line"/>
      <point x="419" y="557" type="line"/>
      <point x="461" y="559" type="line" smooth="yes"/>
      <point x="476" y="560"/>
      <point x="478" y="544"/>
      <point x="483" y="526" type="curve"/>
      <point x="611" y="-10" type="line"/>
      <point x="667" y="-10" type="line"/>
      <point x="931" y="538" type="line" smooth="yes"/>
      <point x="935" y="547"/>
      <point x="946" y="560"/>
      <point x="959" y="559" type="curve" smooth="yes"/>
      <point x="988" y="557" type="line"/>
      <point x="994" y="597" type="line"/>
    </contour>
    <contour>
      <point x="52" y="597" type="line"/>
      <point x="46" y="557" type="line"/>
      <point x="77" y="559" type="line"/>
      <point x="86" y="559"/>
      <point x="92" y="552"/>
      <point x="94" y="537" type="curve"/>
      <point x="216" y="-10" type="line"/>
      <point x="275" y="-10" type="line"/>
      <point x="548" y="553" type="line"/>
      <point x="507" y="560" type="line"/>
      <point x="317" y="174" type="line"/>
      <point x="329" y="174" type="line"/>
      <point x="251" y="537" type="line" smooth="yes"/>
      <point x="248" y="550"/>
      <point x="249" y="560"/>
      <point x="265" y="559" type="curve" smooth="yes"/>
      <point x="314" y="557" type="line"/>
      <point x="320" y="597" type="line"/>
    </contour>
    <contour>
      <point x="547" y="598" type="move" name="top"/>
    </contour>
  </outline>
</glyph>
<glyph name="backslash" format="1">
  <advance width="260"/>
  <unicode hex="005C"/>
  <outline>
    <contour>
      <point x="50" y="626" type="line"/>
      <point x="179" y="-5" type="line"/>
      <point x="233" y="9" type="line"/>
      <point x="103" y="638" type="line"/>
    </contour>
  </outline>
</glyph>
<glyph name="grave" format="1">
  <advance width="266"/>
  <unicode hex="0060"/>
  <outline>
    <contour>
      <point x="132" y="653"/>
      <point x="81" y="628"/>
      <point x="79" y="612" type="curve" smooth="yes"/>
      <point x="78" y="605"/>
      <point x="81" y="599"/>
      <point x="90" y="593" type="curve" smooth="yes"/>
      <point x="244" y="494" type="line" smooth="yes"/>
      <point x="250" y="490"/>
      <point x="260" y="485"/>
      <point x="268" y="485" type="curve" smooth="yes"/>
      <point x="275" y="485"/>
      <point x="280" y="489"/>
      <point x="281" y="496" type="curve" smooth="yes"/>
      <point x="282" y="505"/>
      <point x="279" y="511"/>
      <point x="269" y="524" type="curve" smooth="yes"/>
      <point x="188" y="628" type="line" smooth="yes"/>
      <point x="173" y="648"/>
      <point x="171" y="653"/>
      <point x="156" y="653" type="curve" smooth="yes"/>
    </contour>
    <contour>
      <point x="198" y="420" type="move" name="_top"/>
    </contour>
  </outline>
</glyph>
<glyph name="b" format="1">
  <advance width="497"/>
  <unicode hex="0062"/>
  <outline>
    <contour>
      <point x="176" y="730"/>
      <point x="116" y="720"/>
      <point x="52" y="698" type="curve"/>
      <point x="57" y="663" type="line"/>
      <point x="65" y="665"/>
      <point x="74" y="665"/>
      <point x="81" y="665" type="curve" smooth="yes"/>
      <point x="105" y="665"/>
      <point x="114" y="657"/>
      <point x="114" y="635" type="curve" smooth="yes"/>
      <point x="114" y="545"/>
      <point x="49" y="194"/>
      <point x="49" y="108" type="curve" smooth="yes"/>
      <point x="49" y="49"/>
      <point x="79" y="-7"/>
      <point x="182" y="-7" type="curve" smooth="yes"/>
      <point x="365" y="-7"/>
      <point x="489" y="172"/>
      <point x="489" y="311" type="curve" smooth="yes"/>
      <point x="489" y="389"/>
      <point x="450" y="437"/>
      <point x="387" y="437" type="curve" smooth="yes"/>
      <point x="315" y="437"/>
      <point x="238" y="374"/>
      <point x="196" y="249" type="curve"/>
      <point x="219" y="439"/>
      <point x="268" y="672"/>
      <point x="268" y="701" type="curve" smooth="yes"/>
      <point x="268" y="726"/>
      <point x="247" y="730"/>
      <point x="219" y="730" type="curve" smooth="yes"/>
    </contour>
    <contour>
      <point x="326" y="352"/>
      <point x="341" y="337"/>
      <point x="341" y="293" type="curve" smooth="yes"/>
      <point x="341" y="263"/>
      <point x="334" y="217"/>
      <point x="322" y="176" type="curve" smooth="yes"/>
      <point x="302" y="107"/>
      <point x="262" y="30"/>
      <point x="217" y="30" type="curve" smooth="yes"/>
      <point x="199" y="30"/>
      <point x="178" y="42"/>
      <point x="178" y="85" type="curve" smooth="yes"/>
      <point x="178" y="170"/>
      <point x="264" y="352"/>
      <point x="312" y="352" type="curve" smooth="yes"/>
    </contour>
  </outline>
</glyph>
<glyph name="d" format="1">
  <advance width="522"/>
  <unicode hex="0064"/>
  <outline>
    <contour>
      <point x="119" y="437"/>
      <point x="9" y="279"/>
      <point x="9" y="112" type="curve" smooth="yes"/>
      <point x="9" y="36"/>
      <point x="56" y="-10"/>
      <point x="111" y="-10" type="curve" smooth="yes"/>
      <point x="180" y="-10"/>
      <point x="268" y="46"/>
      <point x="316" y="219" type="curve"/>
      <point x="344" y="365" type="line"/>
      <point x="344" y="415"/>
      <point x="303" y="437"/>
      <point x="264" y="437" type="curve" smooth="yes"/>
    </contour>
    <contour>
      <point x="311" y="397"/>
      <point x="324" y="378"/>
      <point x="324" y="355" type="curve" smooth="yes"/>
      <point x="324" y="259"/>
      <point x="232" y="75"/>
      <point x="188" y="75" type="curve" smooth="yes"/>
      <point x="170" y="75"/>
      <point x="158" y="95"/>
      <point x="158" y="133" type="curve" smooth="yes"/>
      <point x="158" y="167"/>
      <point x="164" y="206"/>
      <point x="175" y="244" type="curve" smooth="yes"/>
      <point x="200" y="337"/>
      <point x="242" y="397"/>
      <point x="284" y="397" type="curve" smooth="yes"/>
    </contour>
    <contour>
      <point x="428" y="730"/>
      <point x="369" y="720"/>
      <point x="305" y="698" type="curve"/>
      <point x="310" y="663" type="line"/>
      <point x="318" y="665"/>
      <point x="327" y="665"/>
      <point x="334" y="665" type="curve" smooth="yes"/>
      <point x="354" y="665"/>
      <point x="367" y="657"/>
      <point x="367" y="641" type="curve" smooth="yes"/>
      <point x="367" y="600"/>
      <point x="351" y="487"/>
      <point x="334" y="370" type="curve"/>
      <point x="307" y="212" type="line"/>
      <point x="296" y="151"/>
      <point x="288" y="100"/>
      <point x="288" y="36" type="curve" smooth="yes"/>
      <point x="288" y="5"/>
      <point x="310" y="-10"/>
      <point x="342" y="-10" type="curve" smooth="yes"/>
      <point x="383" y="-10"/>
      <point x="442" y="16"/>
      <point x="496" y="58" type="curve"/>
      <point x="483" y="88" type="line"/>
      <point x="470" y="80"/>
      <point x="457" y="77"/>
      <point x="453" y="77" type="curve" smooth="yes"/>
      <point x="438" y="77"/>
      <point x="434" y="93"/>
      <point x="434" y="104" type="curve" smooth="yes"/>
      <point x="437" y="182"/>
      <point x="469" y="388"/>
      <point x="494" y="539" type="curve" smooth="yes"/>
      <point x="508" y="620"/>
      <point x="521" y="682"/>
      <point x="521" y="698" type="curve" smooth="yes"/>
      <point x="521" y="726"/>
      <point x="502" y="730"/>
      <point x="475" y="730" type="curve" smooth="yes"/>
    </contour>
    <contour>
      <point x="222" y="213" type="move" name="center"/>
    </contour>
    <contour>
      <point x="595" y="598" type="move" name="topright"/>
    </contour>
  </outline>
</glyph>
<glyph name="e" format="1">
  <advance width="411"/>
  <unicode hex="0065"/>
  <outline>
    <contour>
      <point x="145" y="437"/>
      <point x="15" y="323"/>
      <point x="15" y="162" type="curve" smooth="yes"/>
      <point x="15" y="54"/>
      <point x="73" y="-9"/>
      <point x="177" y="-9" type="curve" smooth="yes"/>
      <point x="256" y="-9"/>
      <point x="337" y="32"/>
      <point x="382" y="94" type="curve"/>
      <point x="360" y="116" type="line"/>
      <point x="324" y="84"/>
      <point x="279" y="68"/>
      <point x="241" y="68" type="curve" smooth="yes"/>
      <point x="195" y="68"/>
      <point x="164" y="98"/>
      <point x="164" y="173" type="curve" smooth="yes"/>
      <point x="164" y="221"/>
      <point x="172" y="271"/>
      <point x="191" y="319" type="curve" smooth="yes"/>
      <point x="212" y="372"/>
      <point x="238" y="400"/>
      <point x="269" y="400" type="curve" smooth="yes"/>
      <point x="292" y="400"/>
      <point x="302" y="382"/>
      <point x="302" y="360" type="curve"/>
      <point x="302" y="277"/>
      <point x="238" y="220"/>
      <point x="116" y="210" type="curve"/>
      <point x="116" y="179" type="line"/>
      <point x="339" y="193"/>
      <point x="420" y="273"/>
      <point x="420" y="344" type="curve"/>
      <point x="420" y="401"/>
      <point x="363" y="437"/>
      <point x="276" y="437" type="curve" smooth="yes"/>
    </contour>
    <contour>
      <point x="281" y="14" type="move" name="ogonek"/>
    </contour>
    <contour>
      <point x="175" y="0" type="move" name="bottom"/>
    </contour>
    <contour>
      <point x="284" y="420" type="move" name="top"/>
    </contour>
  </outline>
</glyph>
<glyph name="h" format="1">
  <advance width="527"/>
  <unicode hex="0068"/>
  <outline>
    <contour>
      <point x="181" y="730"/>
      <point x="117" y="722"/>
      <point x="51" y="698" type="curve"/>
      <point x="56" y="663" type="line"/>
      <point x="65" y="665"/>
      <point x="73" y="665"/>
      <point x="80" y="665" type="curve" smooth="yes"/>
      <point x="100" y="665"/>
      <point x="113" y="657"/>
      <point x="113" y="641" type="curve" smooth="yes"/>
      <point x="113" y="571"/>
      <point x="40" y="86"/>
      <point x="26" y="0" type="curve"/>
      <point x="165" y="0" type="line"/>
      <point x="180" y="123" type="line"/>
      <point x="192" y="213" type="line"/>
      <point x="228" y="464" type="line" smooth="yes"/>
      <point x="236" y="518"/>
      <point x="247" y="589"/>
      <point x="257" y="640" type="curve" smooth="yes"/>
      <point x="263" y="669"/>
      <point x="267" y="691"/>
      <point x="267" y="698" type="curve" smooth="yes"/>
      <point x="267" y="726"/>
      <point x="248" y="730"/>
      <point x="214" y="730" type="curve" smooth="yes"/>
    </contour>
    <contour>
      <point x="302" y="437"/>
      <point x="231" y="329"/>
      <point x="191" y="240" type="curve"/>
      <point x="177" y="110" type="line"/>
      <point x="199" y="211"/>
      <point x="267" y="342"/>
      <point x="318" y="342" type="curve" smooth="yes"/>
      <point x="334" y="342"/>
      <point x="343" y="332"/>
      <point x="343" y="313" type="curve" smooth="yes"/>
      <point x="343" y="269"/>
      <point x="293" y="86"/>
      <point x="293" y="35" type="curve" smooth="yes"/>
      <point x="293" y="7"/>
      <point x="313" y="-10"/>
      <point x="338" y="-10" type="curve" smooth="yes"/>
      <point x="378" y="-10"/>
      <point x="447" y="16"/>
      <point x="506" y="60" type="curve"/>
      <point x="495" y="90" type="line"/>
      <point x="478" y="79"/>
      <point x="464" y="77"/>
      <point x="458" y="77" type="curve" smooth="yes"/>
      <point x="441" y="77"/>
      <point x="439" y="93"/>
      <point x="439" y="100" type="curve" smooth="yes"/>
      <point x="440" y="145"/>
      <point x="488" y="286"/>
      <point x="488" y="347" type="curve" smooth="yes"/>
      <point x="488" y="400"/>
      <point x="454" y="437"/>
      <point x="399" y="437" type="curve" smooth="yes"/>
    </contour>
    <contour>
      <point x="303" y="213" type="move" name="center"/>
    </contour>
    <contour>
      <point x="213" y="650" type="move" name="top"/>
    </contour>
  </outline>
</glyph>
<glyph name="i" format="1">
  <advance width="281"/>
  <unicode hex="0069"/>
  <outline>
    <contour>
      <point x="136" y="661"/>
      <point x="95" y="631"/>
      <point x="95" y="584" type="curve" smooth="yes"/>
      <point x="95" y="549"/>
      <point x="125" y="526"/>
      <point x="171" y="526" type="curve" smooth="yes"/>
      <point x="225" y="526"/>
      <point x="266" y="555"/>
      <point x="266" y="604" type="curve" smooth="yes"/>
      <point x="266" y="639"/>
      <point x="235" y="661"/>
      <point x="189" y="661" type="curve" smooth="yes"/>
    </contour>
    <component base="dotlessi"/>
    <contour>
      <point x="149" y="14" type="move" name="ogonek"/>
    </contour>
  </outline>
</glyph>
<glyph name="l" format="1">
  <advance width="269"/>
  <unicode hex="006C"/>
  <outline>
    <contour>
      <point x="114" y="600"/>
      <point x="98" y="487"/>
      <point x="81" y="370" type="curve" smooth="yes"/>
      <point x="59" y="219"/>
      <point x="35" y="63"/>
      <point x="35" y="36" type="curve" smooth="yes"/>
      <point x="35" y="5"/>
      <point x="57" y="-10"/>
      <point x="89" y="-10" type="curve" smooth="yes"/>
      <point x="133" y="-10"/>
      <point x="196" y="16"/>
      <point x="254" y="60" type="curve"/>
      <point x="241" y="90" type="line"/>
      <point x="224" y="79"/>
      <point x="205" y="77"/>
      <point x="200" y="77" type="curve" smooth="yes"/>
      <point x="182" y="77"/>
      <point x="181" y="93"/>
      <point x="181" y="104" type="curve" smooth="yes"/>
      <point x="184" y="182"/>
      <point x="216" y="388"/>
      <point x="241" y="539" type="curve" smooth="yes"/>
      <point x="255" y="620"/>
      <point x="268" y="682"/>
      <point x="268" y="698" type="curve" smooth="yes"/>
      <point x="268" y="726"/>
      <point x="249" y="730"/>
      <point x="222" y="730" type="curve" smooth="yes"/>
      <point x="175" y="730"/>
      <point x="116" y="720"/>
      <point x="52" y="698" type="curve"/>
      <point x="57" y="663" type="line"/>
      <point x="65" y="665"/>
      <point x="74" y="665"/>
      <point x="81" y="665" type="curve" smooth="yes"/>
      <point x="101" y="665"/>
      <point x="114" y="657"/>
      <point x="114" y="641" type="curve" smooth="yes"/>
    </contour>
    <contour>
      <point x="191" y="650" type="move" name="top"/>
    </contour>
    <contour>
      <point x="102" y="0" type="move" name="bottom"/>
    </contour>
    <contour>
      <point x="346" y="598" type="move" name="topright"/>
    </contour>
  </outline>
</glyph>
<glyph name="m" format="1">
  <advance width="788"/>
  <unicode hex="006D"/>
  <outline>
    <contour>
      <point x="466" y="245" type="line"/>
      <point x="475" y="284"/>
      <point x="481" y="322"/>
      <point x="481" y="347" type="curve" smooth="yes"/>
      <point x="481" y="400"/>
      <point x="447" y="437"/>
      <point x="400" y="437" type="curve" smooth="yes"/>
      <point x="303" y="437"/>
      <point x="232" y="329"/>
      <point x="192" y="240" type="curve"/>
      <point x="178" y="110" type="line"/>
      <point x="200" y="211"/>
      <point x="267" y="342"/>
      <point x="315" y="342" type="curve" smooth="yes"/>
      <point x="330" y="342"/>
      <point x="337" y="331"/>
      <point x="337" y="305" type="curve" smooth="yes"/>
      <point x="337" y="250"/>
      <point x="310" y="91"/>
      <point x="293" y="0" type="curve"/>
      <point x="431" y="0" type="line"/>
      <point x="447" y="132" type="line"/>
    </contour>
    <contour>
      <point x="443" y="109" type="line"/>
      <point x="464" y="211"/>
      <point x="528" y="342"/>
      <point x="579" y="342" type="curve" smooth="yes"/>
      <point x="594" y="342"/>
      <point x="603" y="331"/>
      <point x="603" y="311" type="curve" smooth="yes"/>
      <point x="603" y="267"/>
      <point x="554" y="86"/>
      <point x="554" y="35" type="curve" smooth="yes"/>
      <point x="554" y="7"/>
      <point x="569" y="-10"/>
      <point x="602" y="-10" type="curve" smooth="yes"/>
      <point x="642" y="-10"/>
      <point x="708" y="16"/>
      <point x="767" y="60" type="curve"/>
      <point x="756" y="90" type="line"/>
      <point x="739" y="79"/>
      <point x="725" y="77"/>
      <point x="719" y="77" type="curve" smooth="yes"/>
      <point x="702" y="77"/>
      <point x="700" y="93"/>
      <point x="700" y="100" type="curve" smooth="yes"/>
      <point x="701" y="145"/>
      <point x="748" y="285"/>
      <point x="748" y="347" type="curve" smooth="yes"/>
      <point x="748" y="400"/>
      <point x="714" y="437"/>
      <point x="659" y="437" type="curve" smooth="yes"/>
      <point x="571" y="437"/>
      <point x="506" y="349"/>
      <point x="464" y="267" type="curve"/>
    </contour>
    <contour>
      <point x="196" y="218" type="line" smooth="yes"/>
      <point x="207" y="284"/>
      <point x="228" y="386"/>
      <point x="228" y="404" type="curve" smooth="yes"/>
      <point x="228" y="428"/>
      <point x="201" y="433"/>
      <point x="175" y="433" type="curve" smooth="yes"/>
      <point x="122" y="433"/>
      <point x="72" y="420"/>
      <point x="28" y="407" type="curve"/>
      <point x="32" y="368" type="line"/>
      <point x="36" y="369"/>
      <point x="43" y="370"/>
      <point x="48" y="370" type="curve" smooth="yes"/>
      <point x="68" y="370"/>
      <point x="77" y="358"/>
      <point x="77" y="338" type="curve" smooth="yes"/>
      <point x="77" y="277"/>
      <point x="47" y="100"/>
      <point x="30" y="0" type="curve"/>
      <point x="168" y="0" type="line"/>
      <point x="184" y="132" type="line"/>
    </contour>
  </outline>
</glyph>
<glyph name="n" format="1">
  <advance width="530"/>
  <unicode hex="006E"/>
  <outline>
    <contour>
      <point x="196" y="211" type="line" smooth="yes"/>
      <point x="207" y="278"/>
      <point x="228" y="386"/>
      <point x="228" y="404" type="curve" smooth="yes"/>
      <point x="228" y="428"/>
      <point x="201" y="433"/>
      <point x="175" y="433" type="curve" smooth="yes"/>
      <point x="122" y="433"/>
      <point x="72" y="420"/>
      <point x="28" y="407" type="curve"/>
      <point x="32" y="368" type="line"/>
      <point x="36" y="369"/>
      <point x="43" y="370"/>
      <point x="48" y="370" type="curve" smooth="yes"/>
      <point x="68" y="370"/>
      <point x="77" y="358"/>
      <point x="77" y="338" type="curve" smooth="yes"/>
      <point x="77" y="277"/>
      <point x="48" y="100"/>
      <point x="31" y="0" type="curve"/>
      <point x="169" y="0" type="line"/>
      <point x="184" y="125" type="line"/>
    </contour>
    <contour>
      <point x="180" y="110" type="line"/>
      <point x="202" y="211"/>
      <point x="270" y="342"/>
      <point x="321" y="342" type="curve" smooth="yes"/>
      <point x="337" y="342"/>
      <point x="346" y="332"/>
      <point x="346" y="313" type="curve" smooth="yes"/>
      <point x="346" y="269"/>
      <point x="296" y="86"/>
      <point x="296" y="35" type="curve" smooth="yes"/>
      <point x="296" y="7"/>
      <point x="316" y="-10"/>
      <point x="341" y="-10" type="curve" smooth="yes"/>
      <point x="381" y="-10"/>
      <point x="450" y="16"/>
      <point x="509" y="60" type="curve"/>
      <point x="498" y="90" type="line"/>
      <point x="481" y="79"/>
      <point x="467" y="77"/>
      <point x="461" y="77" type="curve" smooth="yes"/>
      <point x="444" y="77"/>
      <point x="442" y="93"/>
      <point x="442" y="100" type="curve" smooth="yes"/>
      <point x="443" y="145"/>
      <point x="491" y="286"/>
      <point x="491" y="347" type="curve" smooth="yes"/>
      <point x="491" y="400"/>
      <point x="457" y="437"/>
      <point x="402" y="437" type="curve" smooth="yes"/>
      <point x="305" y="437"/>
      <point x="234" y="329"/>
      <point x="194" y="240" type="curve"/>
    </contour>
    <contour>
      <point x="319" y="420" type="move" name="top"/>
    </contour>
    <contour>
      <point x="257" y="0" type="move" name="bottom"/>
    </contour>
  </outline>
</glyph>
<glyph name="p" format="1">
  <advance width="506"/>
  <unicode hex="0070"/>
  <outline>
    <contour>
      <point x="326" y="437"/>
      <point x="238" y="381"/>
      <point x="190" y="208" type="curve"/>
      <point x="162" y="62" type="line"/>
      <point x="162" y="12"/>
      <point x="203" y="-10"/>
      <point x="242" y="-10" type="curve" smooth="yes"/>
      <point x="387" y="-10"/>
      <point x="497" y="148"/>
      <point x="497" y="315" type="curve" smooth="yes"/>
      <point x="497" y="391"/>
      <point x="450" y="437"/>
      <point x="395" y="437" type="curve" smooth="yes"/>
    </contour>
    <contour>
      <point x="122" y="433"/>
      <point x="72" y="420"/>
      <point x="28" y="407" type="curve"/>
      <point x="32" y="367" type="line"/>
      <point x="36" y="368"/>
      <point x="43" y="369"/>
      <point x="48" y="369" type="curve" smooth="yes"/>
      <point x="68" y="369"/>
      <point x="77" y="357"/>
      <point x="77" y="337" type="curve" smooth="yes"/>
      <point x="77" y="285"/>
      <point x="23" y="-84"/>
      <point x="6" y="-185" type="curve" smooth="yes"/>
      <point x="4" y="-198"/>
      <point x="0" y="-204"/>
      <point x="-8" y="-205" type="curve"/>
      <point x="-39" y="-203" type="line"/>
      <point x="-44" y="-239" type="line"/>
      <point x="210" y="-239" type="line"/>
      <point x="215" y="-203" type="line"/>
      <point x="152" y="-205" type="line" smooth="yes"/>
      <point x="146" y="-205"/>
      <point x="143" y="-201"/>
      <point x="143" y="-193" type="curve" smooth="yes"/>
      <point x="144" y="-148"/>
      <point x="166" y="7"/>
      <point x="183" y="122" type="curve" smooth="yes"/>
      <point x="196" y="211" type="line" smooth="yes"/>
      <point x="207" y="281"/>
      <point x="228" y="386"/>
      <point x="228" y="405" type="curve" smooth="yes"/>
      <point x="228" y="428"/>
      <point x="201" y="433"/>
      <point x="175" y="433" type="curve" smooth="yes"/>
    </contour>
    <contour>
      <point x="336" y="352"/>
      <point x="348" y="332"/>
      <point x="348" y="294" type="curve" smooth="yes"/>
      <point x="348" y="260"/>
      <point x="342" y="221"/>
      <point x="331" y="183" type="curve" smooth="yes"/>
      <point x="306" y="90"/>
      <point x="264" y="30"/>
      <point x="222" y="30" type="curve" smooth="yes"/>
      <point x="195" y="30"/>
      <point x="182" y="49"/>
      <point x="182" y="72" type="curve" smooth="yes"/>
      <point x="182" y="168"/>
      <point x="274" y="352"/>
      <point x="318" y="352" type="curve" smooth="yes"/>
    </contour>
  </outline>
</glyph>
<glyph name="t" format="1">
  <advance width="357"/>
  <unicode hex="0074"/>
  <outline>
    <contour>
      <point x="300" y="108" type="line"/>
      <point x="279" y="90"/>
      <point x="255" y="76"/>
      <point x="233" y="76" type="curve" smooth="yes"/>
      <point x="213" y="76"/>
      <point x="205" y="89"/>
      <point x="205" y="108" type="curve" smooth="yes"/>
      <point x="205" y="134"/>
      <point x="217" y="213"/>
      <point x="226" y="265" type="curve" smooth="yes"/>
      <point x="240" y="345"/>
      <point x="274" y="523"/>
      <point x="277" y="540" type="curve"/>
      <point x="127" y="514" type="line"/>
      <point x="79" y="226" type="line" smooth="yes"/>
      <point x="66" y="143"/>
      <point x="56" y="86"/>
      <point x="56" y="57" type="curve" smooth="yes"/>
      <point x="56" y="21"/>
      <point x="79" y="-9"/>
      <point x="142" y="-9" type="curve" smooth="yes"/>
      <point x="215" y="-9"/>
      <point x="275" y="31"/>
      <point x="323" y="84" type="curve"/>
    </contour>
    <contour>
      <point x="138" y="427" type="line"/>
      <point x="49" y="427" type="line"/>
      <point x="27" y="386" type="line"/>
      <point x="131" y="386" type="line"/>
    </contour>
    <contour>
      <point x="245" y="386" type="line"/>
      <point x="321" y="386" type="line"/>
      <point x="350" y="402" type="line"/>
      <point x="350" y="427" type="line"/>
      <point x="253" y="427" type="line"/>
    </contour>
    <contour>
      <point x="158" y="213" type="move" name="center"/>
    </contour>
    <contour>
      <point x="158" y="0" type="move" name="bottom"/>
    </contour>
    <contour>
      <point x="356" y="598" type="move" name="topright"/>
    </contour>
  </outline>
</glyph>
<glyph name="u" format="1">
  <advance width="537"/>
  <unicode hex="0075"/>
  <outline>
    <contour>
      <point x="322" y="208" type="line" smooth="yes"/>
      <point x="312" y="134"/>
      <point x="301" y="69"/>
      <point x="301" y="36" type="curve" smooth="yes"/>
      <point x="301" y="5"/>
      <point x="308" y="-10"/>
      <point x="335" y="-10" type="curve" smooth="yes"/>
      <point x="377" y="-10"/>
      <point x="441" y="7"/>
      <point x="510" y="60" type="curve"/>
      <point x="499" y="90" type="line"/>
      <point x="482" y="79"/>
      <point x="469" y="77"/>
      <point x="461" y="77" type="curve" smooth="yes"/>
      <point x="452" y="77"/>
      <point x="448" y="83"/>
      <point x="448" y="94" type="curve" smooth="yes"/>
      <point x="448" y="136"/>
      <point x="467" y="231"/>
      <point x="506" y="435" type="curve"/>
      <point x="354" y="418" type="line"/>
    </contour>
    <contour>
      <point x="336" y="301" type="line"/>
      <point x="323" y="226"/>
      <point x="254" y="95"/>
      <point x="204" y="95" type="curve" smooth="yes"/>
      <point x="187" y="95"/>
      <point x="180" y="110"/>
      <point x="180" y="130" type="curve" smooth="yes"/>
      <point x="180" y="182"/>
      <point x="236" y="377"/>
      <point x="236" y="404" type="curve" smooth="yes"/>
      <point x="236" y="427"/>
      <point x="214" y="433"/>
      <point x="192" y="433" type="curve" smooth="yes"/>
      <point x="137" y="433"/>
      <point x="85" y="420"/>
      <point x="30" y="407" type="curve"/>
      <point x="34" y="368" type="line"/>
      <point x="38" y="369"/>
      <point x="46" y="370"/>
      <point x="54" y="370" type="curve" smooth="yes"/>
      <point x="75" y="370"/>
      <point x="92" y="365"/>
      <point x="91" y="341" type="curve" smooth="yes"/>
      <point x="90" y="301"/>
      <point x="41" y="131"/>
      <point x="41" y="70" type="curve" smooth="yes"/>
      <point x="41" y="26"/>
      <point x="67" y="-10"/>
      <point x="123" y="-10" type="curve" smooth="yes"/>
      <point x="189" y="-10"/>
      <point x="253" y="40"/>
      <point x="332" y="191" type="curve"/>
      <point x="350" y="327" type="line"/>
    </contour>
    <contour>
      <point x="434" y="14" type="move" name="ogonek"/>
    </contour>
    <contour>
      <point x="275" y="420" type="move" name="top"/>
    </contour>
  </outline>
</glyph>
<glyph name="asciitilde" format="1">
  <advance width="460"/>
  <unicode hex="007E"/>
  <outline>
    <contour>
      <point x="390" y="282"/>
      <point x="366" y="268"/>
      <point x="333" y="268" type="curve" smooth="yes"/>
      <point x="272" y="268"/>
      <point x="213" y="333"/>
      <point x="148" y="333" type="curve" smooth="yes"/>
      <point x="104" y="333"/>
      <point x="58" y="309"/>
      <point x="22" y="256" type="curve"/>
      <point x="50" y="221" type="line"/>
      <point x="87" y="266"/>
      <point x="107" y="275"/>
      <point x="140" y="275" type="curve" smooth="yes"/>
      <point x="201" y="275"/>
      <point x="262" y="210"/>
      <point x="325" y="210" type="curve" smooth="yes"/>
      <point x="369" y="210"/>
      <point x="419" y="240"/>
      <point x="455" y="293" type="curve"/>
      <point x="427" y="327" type="line"/>
    </contour>
  </outline>
</glyph>
<glyph name="exclamdown" format="1">
  <advance width="262"/>
  <unicode hex="00A1"/>
  <outline>
    <contour>
      <point x="143" y="234"/>
      <point x="137" y="225"/>
      <point x="136" y="213" type="curve" smooth="yes"/>
      <point x="125" y="129"/>
      <point x="80" y="10"/>
      <point x="64" y="-28" type="curve" smooth="yes"/>
      <point x="37" y="-99"/>
      <point x="20" y="-139"/>
      <point x="20" y="-175" type="curve" smooth="yes"/>
      <point x="20" y="-215"/>
      <point x="41" y="-242"/>
      <point x="91" y="-242" type="curve" smooth="yes"/>
      <point x="150" y="-242"/>
      <point x="181" y="-197"/>
      <point x="181" y="-138" type="curve" smooth="yes"/>
      <point x="181" y="-82"/>
      <point x="163" y="48"/>
      <point x="163" y="118" type="curve" smooth="yes"/>
      <point x="163" y="149"/>
      <point x="165" y="181"/>
      <point x="169" y="213" type="curve" smooth="yes"/>
      <point x="170" y="225"/>
      <point x="168" y="234"/>
      <point x="155" y="234" type="curve" smooth="yes"/>
    </contour>
    <contour>
      <point x="121" y="445"/>
      <point x="71" y="405"/>
      <point x="71" y="355" type="curve" smooth="yes"/>
      <point x="71" y="315"/>
      <point x="107" y="284"/>
      <point x="162" y="284" type="curve" smooth="yes"/>
      <point x="225" y="284"/>
      <point x="274" y="325"/>
      <point x="274" y="374" type="curve" smooth="yes"/>
      <point x="274" y="415"/>
      <point x="239" y="445"/>
      <point x="184" y="445" type="curve" smooth="yes"/>
    </contour>
  </outline>
</glyph>
<glyph name="sterling" format="1">
  <advance width="507"/>
  <unicode hex="00A3"/>
  <outline>
    <contour>
      <point x="225" y="607"/>
      <point x="153" y="547"/>
      <point x="134" y="410" type="curve"/>
      <point x="108" y="156" type="line"/>
      <point x="100" y="102"/>
      <point x="58" y="50"/>
      <point x="1" y="21" type="curve"/>
      <point x="0" y="-3" type="line"/>
      <point x="27" y="-2"/>
      <point x="84" y="0"/>
      <point x="120" y="0" type="curve" smooth="yes"/>
      <point x="346" y="0" type="line" smooth="yes"/>
      <point x="382" y="0"/>
      <point x="407" y="-3"/>
      <point x="424" y="-3" type="curve"/>
      <point x="458" y="168" type="line"/>
      <point x="423" y="168" type="line"/>
      <point x="416" y="120"/>
      <point x="390" y="105"/>
      <point x="293" y="105" type="curve" smooth="yes"/>
      <point x="123" y="105" type="line"/>
      <point x="131" y="79" type="line"/>
      <point x="192" y="109"/>
      <point x="266" y="173"/>
      <point x="277" y="246" type="curve" smooth="yes"/>
      <point x="287" y="317" type="line" smooth="yes"/>
      <point x="298" y="397"/>
      <point x="284" y="488"/>
      <point x="301" y="529" type="curve" smooth="yes"/>
      <point x="314" y="558"/>
      <point x="338" y="574"/>
      <point x="360" y="574" type="curve" smooth="yes"/>
      <point x="378" y="574"/>
      <point x="388" y="567"/>
      <point x="388" y="549" type="curve" smooth="yes"/>
      <point x="388" y="527"/>
      <point x="372" y="516"/>
      <point x="372" y="496" type="curve" smooth="yes"/>
      <point x="372" y="471"/>
      <point x="396" y="454"/>
      <point x="429" y="454" type="curve" smooth="yes"/>
      <point x="468" y="454"/>
      <point x="506" y="481"/>
      <point x="506" y="525" type="curve" smooth="yes"/>
      <point x="506" y="570"/>
      <point x="462" y="607"/>
      <point x="382" y="607" type="curve" smooth="yes"/>
    </contour>
    <contour>
      <point x="52" y="329" type="line"/>
      <point x="48" y="296" type="line"/>
      <point x="403" y="296" type="line"/>
      <point x="407" y="329" type="line"/>
    </contour>
  </outline>
</glyph>
<glyph name="section" format="1">
  <advance width="442"/>
  <unicode hex="00A7"/>
  <outline>
    <contour>
      <point x="142" y="607"/>
      <point x="59" y="539"/>
      <point x="59" y="439" type="curve" smooth="yes"/>
      <point x="59" y="393"/>
      <point x="81" y="348"/>
      <point x="146" y="314" type="curve" smooth="yes"/>
      <point x="229" y="271" type="line" smooth="yes"/>
      <point x="278" y="246"/>
      <point x="299" y="233"/>
      <point x="299" y="205" type="curve" smooth="yes"/>
      <point x="299" y="179"/>
      <point x="285" y="159"/>
      <point x="254" y="144" type="curve"/>
      <point x="276" y="125" type="line"/>
      <point x="380" y="162"/>
      <point x="425" y="219"/>
      <point x="425" y="283" type="curve" smooth="yes"/>
      <point x="425" y="321"/>
      <point x="406" y="361"/>
      <point x="347" y="391" type="curve" smooth="yes"/>
      <point x="232" y="450" type="line" smooth="yes"/>
      <point x="203" y="465"/>
      <point x="183" y="483"/>
      <point x="183" y="509" type="curve" smooth="yes"/>
      <point x="183" y="549"/>
      <point x="225" y="574"/>
      <point x="276" y="574" type="curve" smooth="yes"/>
      <point x="307" y="574"/>
      <point x="340" y="564"/>
      <point x="340" y="535" type="curve" smooth="yes"/>
      <point x="340" y="513"/>
      <point x="324" y="507"/>
      <point x="324" y="480" type="curve" smooth="yes"/>
      <point x="324" y="457"/>
      <point x="338" y="437"/>
      <point x="376" y="437" type="curve" smooth="yes"/>
      <point x="426" y="437"/>
      <point x="457" y="468"/>
      <point x="457" y="510" type="curve" smooth="yes"/>
      <point x="457" y="577"/>
      <point x="364" y="607"/>
      <point x="277" y="607" type="curve" smooth="yes"/>
    </contour>
    <contour>
      <point x="69" y="310"/>
      <point x="23" y="253"/>
      <point x="23" y="189" type="curve" smooth="yes"/>
      <point x="23" y="151"/>
      <point x="42" y="111"/>
      <point x="101" y="81" type="curve" smooth="yes"/>
      <point x="216" y="22" type="line" smooth="yes"/>
      <point x="245" y="7"/>
      <point x="265" y="-11"/>
      <point x="265" y="-37" type="curve" smooth="yes"/>
      <point x="265" y="-77"/>
      <point x="223" y="-102"/>
      <point x="173" y="-102" type="curve" smooth="yes"/>
      <point x="142" y="-102"/>
      <point x="108" y="-92"/>
      <point x="108" y="-63" type="curve" smooth="yes"/>
      <point x="108" y="-41"/>
      <point x="124" y="-35"/>
      <point x="124" y="-8" type="curve" smooth="yes"/>
      <point x="124" y="15"/>
      <point x="110" y="35"/>
      <point x="72" y="35" type="curve" smooth="yes"/>
      <point x="22" y="35"/>
      <point x="-9" y="4"/>
      <point x="-9" y="-38" type="curve" smooth="yes"/>
      <point x="-9" y="-105"/>
      <point x="84" y="-135"/>
      <point x="171" y="-135" type="curve" smooth="yes"/>
      <point x="307" y="-135"/>
      <point x="390" y="-67"/>
      <point x="390" y="33" type="curve" smooth="yes"/>
      <point x="390" y="79"/>
      <point x="367" y="124"/>
      <point x="302" y="158" type="curve" smooth="yes"/>
      <point x="219" y="201" type="line" smooth="yes"/>
      <point x="171" y="226"/>
      <point x="149" y="239"/>
      <point x="149" y="267" type="curve" smooth="yes"/>
      <point x="149" y="293"/>
      <point x="163" y="313"/>
      <point x="194" y="328" type="curve"/>
      <point x="173" y="347" type="line"/>
    </contour>
  </outline>
</glyph>
<glyph name="dieresis" format="1">
  <advance width="370"/>
  <unicode hex="00A8"/>
  <outline>
    <component base="dotaccent"/>
    <component base="dotaccent" xOffset="200"/>
    <contour>
      <point x="215" y="420" type="move" name="_top"/>
    </contour>
  </outline>
</glyph>
<glyph name="copyright" format="1">
  <advance width="679"/>
  <unicode hex="00A9"/>
  <outline>
    <contour>
      <point x="41" y="393"/>
      <point x="41" y="260" type="curve" smooth="yes"/>
      <point x="41" y="109"/>
      <point x="157" y="-10"/>
      <point x="313" y="-10" type="curve" smooth="yes"/>
      <point x="569" y="-10"/>
      <point x="662" y="203"/>
      <point x="662" y="336" type="curve" smooth="yes"/>
      <point x="662" y="488"/>
      <point x="546" y="607"/>
      <point x="389" y="607" type="curve" smooth="yes"/>
      <point x="134" y="607"/>
    </contour>
    <contour>
      <point x="159" y="567"/>
      <point x="383" y="567" type="curve" smooth="yes"/>
      <point x="519" y="567"/>
      <point x="618" y="464"/>
      <point x="618" y="331" type="curve" smooth="yes"/>
      <point x="618" y="223"/>
      <point x="542" y="30"/>
      <point x="317" y="30" type="curve" smooth="yes"/>
      <point x="183" y="30"/>
      <point x="83" y="134"/>
      <point x="83" y="265" type="curve" smooth="yes"/>
      <point x="83" y="373"/>
    </contour>
    <contour>
      <point x="175" y="396"/>
      <point x="175" y="271" type="curve" smooth="yes"/>
      <point x="175" y="186"/>
      <point x="241" y="130"/>
      <point x="339" y="130" type="curve" smooth="yes"/>
      <point x="392" y="130"/>
      <point x="430" y="158"/>
      <point x="474" y="158" type="curve" smooth="yes"/>
      <point x="477" y="158" type="line"/>
      <point x="477" y="175"/>
      <point x="479" y="194"/>
      <point x="488" y="234" type="curve"/>
      <point x="459" y="234" type="line"/>
      <point x="446" y="195"/>
      <point x="406" y="164"/>
      <point x="372" y="164" type="curve" smooth="yes"/>
      <point x="329" y="164"/>
      <point x="305" y="185"/>
      <point x="305" y="250" type="curve" smooth="yes"/>
      <point x="305" y="325"/>
      <point x="316" y="437"/>
      <point x="404" y="437" type="curve" smooth="yes"/>
      <point x="437" y="437"/>
      <point x="470" y="406"/>
      <point x="473" y="369" type="curve"/>
      <point x="500" y="372" type="line"/>
      <point x="500" y="387"/>
      <point x="503" y="418"/>
      <point x="509" y="443" type="curve"/>
      <point x="465" y="443"/>
      <point x="454" y="470"/>
      <point x="384" y="470" type="curve" smooth="yes"/>
      <point x="259" y="470"/>
    </contour>
  </outline>
</glyph>
<glyph name="ordfeminine" format="1">
  <advance width="341"/>
  <unicode hex="00AA"/>
  <outline>
    <contour>
      <point x="39" y="362"/>
      <point x="64" y="342"/>
      <point x="114" y="342" type="curve" smooth="yes"/>
      <point x="157" y="342"/>
      <point x="197" y="357"/>
      <point x="216" y="387" type="curve"/>
      <point x="208" y="350" type="line"/>
      <point x="348" y="350" type="line"/>
      <point x="353" y="384" type="line"/>
      <point x="328" y="383" type="line"/>
      <point x="324" y="383"/>
      <point x="322" y="385"/>
      <point x="323" y="390" type="curve"/>
      <point x="340" y="513" type="line" smooth="yes"/>
      <point x="341" y="520"/>
      <point x="343" y="535"/>
      <point x="343" y="545" type="curve" smooth="yes"/>
      <point x="343" y="593"/>
      <point x="300" y="615"/>
      <point x="211" y="615" type="curve" smooth="yes"/>
      <point x="116" y="615"/>
      <point x="71" y="590"/>
      <point x="71" y="549" type="curve" smooth="yes"/>
      <point x="71" y="522"/>
      <point x="94" y="509"/>
      <point x="118" y="509" type="curve" smooth="yes"/>
      <point x="148" y="509"/>
      <point x="177" y="522"/>
      <point x="177" y="548" type="curve" smooth="yes"/>
      <point x="177" y="571"/>
      <point x="183" y="582"/>
      <point x="211" y="582" type="curve" smooth="yes"/>
      <point x="227" y="582"/>
      <point x="235" y="573"/>
      <point x="235" y="556" type="curve" smooth="yes"/>
      <point x="235" y="544"/>
      <point x="233" y="530"/>
      <point x="232" y="523" type="curve" smooth="yes"/>
      <point x="228" y="495" type="line"/>
      <point x="87" y="495"/>
      <point x="39" y="464"/>
      <point x="39" y="400" type="curve" smooth="yes"/>
    </contour>
    <contour>
      <point x="153" y="442"/>
      <point x="170" y="462"/>
      <point x="223" y="462" type="curve"/>
      <point x="221" y="449" type="line" smooth="yes"/>
      <point x="216" y="415"/>
      <point x="198" y="388"/>
      <point x="175" y="388" type="curve" smooth="yes"/>
      <point x="160" y="388"/>
      <point x="153" y="398"/>
      <point x="153" y="413" type="curve" smooth="yes"/>
    </contour>
  </outline>
</glyph>
<glyph name="registered" format="1">
  <advance width="481"/>
  <unicode hex="00AE"/>
  <outline>
    <contour>
      <point x="148" y="607"/>
      <point x="65" y="527"/>
      <point x="65" y="410" type="curve" smooth="yes"/>
      <point x="65" y="293"/>
      <point x="148" y="213"/>
      <point x="269" y="213" type="curve" smooth="yes"/>
      <point x="388" y="213"/>
      <point x="471" y="293"/>
      <point x="471" y="410" type="curve" smooth="yes"/>
      <point x="471" y="527"/>
      <point x="388" y="607"/>
      <point x="269" y="607" type="curve" smooth="yes"/>
    </contour>
    <contour>
      <point x="368" y="574"/>
      <point x="435" y="508"/>
      <point x="435" y="410" type="curve" smooth="yes"/>
      <point x="435" y="312"/>
      <point x="368" y="246"/>
      <point x="268" y="246" type="curve" smooth="yes"/>
      <point x="168" y="246"/>
      <point x="101" y="312"/>
      <point x="101" y="410" type="curve" smooth="yes"/>
      <point x="101" y="508"/>
      <point x="168" y="574"/>
      <point x="268" y="574" type="curve" smooth="yes"/>
    </contour>
    <contour>
      <point x="157" y="483" type="line"/>
      <point x="174" y="483" type="line" smooth="yes"/>
      <point x="181" y="483"/>
      <point x="183" y="480"/>
      <point x="183" y="476" type="curve" smooth="yes"/>
      <point x="183" y="352" type="line" smooth="yes"/>
      <point x="183" y="348"/>
      <point x="181" y="345"/>
      <point x="177" y="345" type="curve" smooth="yes"/>
      <point x="157" y="345" type="line"/>
      <point x="157" y="316" type="line"/>
      <point x="280" y="316" type="line"/>
      <point x="280" y="345" type="line"/>
      <point x="267" y="345" type="line" smooth="yes"/>
      <point x="261" y="345"/>
      <point x="258" y="347"/>
      <point x="258" y="352" type="curve" smooth="yes"/>
      <point x="258" y="383" type="line"/>
      <point x="279" y="383" type="line" smooth="yes"/>
      <point x="286" y="383"/>
      <point x="297" y="383"/>
      <point x="297" y="361" type="curve"/>
      <point x="297" y="357" type="line"/>
      <point x="297" y="330"/>
      <point x="310" y="316"/>
      <point x="341" y="316" type="curve" smooth="yes"/>
      <point x="394" y="316" type="line"/>
      <point x="394" y="346" type="line"/>
      <point x="380" y="343"/>
      <point x="377" y="355"/>
      <point x="377" y="361" type="curve"/>
      <point x="375" y="389"/>
      <point x="342" y="405"/>
      <point x="311" y="405" type="curve"/>
      <point x="354" y="412"/>
      <point x="373" y="436"/>
      <point x="373" y="466" type="curve" smooth="yes"/>
      <point x="373" y="497"/>
      <point x="349" y="512"/>
      <point x="297" y="512" type="curve" smooth="yes"/>
      <point x="157" y="512" type="line"/>
    </contour>
    <contour>
      <point x="282" y="483"/>
      <point x="298" y="476"/>
      <point x="298" y="451" type="curve" smooth="yes"/>
      <point x="298" y="434"/>
      <point x="289" y="416"/>
      <point x="268" y="416" type="curve" smooth="yes"/>
      <point x="258" y="416" type="line"/>
      <point x="258" y="480" type="line" smooth="yes"/>
      <point x="258" y="482"/>
      <point x="260" y="483"/>
      <point x="263" y="483" type="curve" smooth="yes"/>
      <point x="273" y="483" type="line" smooth="yes"/>
    </contour>
  </outline>
</glyph>
<glyph name="plusminus" format="1">
  <advance width="460"/>
  <unicode hex="00B1"/>
  <outline>
    <contour>
      <point x="243" y="506" type="line"/>
      <point x="218" y="324" type="line"/>
      <point x="36" y="324" type="line"/>
      <point x="28" y="273" type="line"/>
      <point x="210" y="273" type="line"/>
      <point x="185" y="89" type="line"/>
      <point x="240" y="89" type="line"/>
      <point x="265" y="273" type="line"/>
      <point x="448" y="273" type="line"/>
      <point x="456" y="324" type="line"/>
      <point x="273" y="324" type="line"/>
      <point x="298" y="506" type="line"/>
    </contour>
    <contour>
      <point x="-3" y="51" type="line"/>
      <point x="-10" y="0" type="line"/>
      <point x="410" y="0" type="line"/>
      <point x="417" y="51" type="line"/>
    </contour>
  </outline>
</glyph>
<glyph name="threesuperior" format="1">
  <advance width="305"/>
  <unicode hex="00B3"/>
  <outline>
    <contour>
      <point x="131" y="678"/>
      <point x="67" y="656"/>
      <point x="67" y="613" type="curve" smooth="yes"/>
      <point x="67" y="593"/>
      <point x="82" y="574"/>
      <point x="117" y="574" type="curve" smooth="yes"/>
      <point x="149" y="574"/>
      <point x="180" y="589"/>
      <point x="180" y="621" type="curve" smooth="yes"/>
      <point x="180" y="626"/>
      <point x="179" y="631"/>
      <point x="179" y="635" type="curve" smooth="yes"/>
      <point x="179" y="646"/>
      <point x="190" y="654"/>
      <point x="203" y="654" type="curve" smooth="yes"/>
      <point x="216" y="654"/>
      <point x="224" y="645"/>
      <point x="224" y="627" type="curve" smooth="yes"/>
      <point x="224" y="565"/>
      <point x="165" y="550"/>
      <point x="121" y="550" type="curve"/>
      <point x="118" y="528" type="line"/>
      <point x="199" y="524"/>
      <point x="220" y="513"/>
      <point x="220" y="484" type="curve" smooth="yes"/>
      <point x="220" y="447"/>
      <point x="202" y="421"/>
      <point x="173" y="421" type="curve" smooth="yes"/>
      <point x="166" y="421"/>
      <point x="148" y="424"/>
      <point x="148" y="437" type="curve" smooth="yes"/>
      <point x="148" y="444"/>
      <point x="153" y="453"/>
      <point x="153" y="463" type="curve" smooth="yes"/>
      <point x="153" y="485"/>
      <point x="132" y="501"/>
      <point x="101" y="501" type="curve" smooth="yes"/>
      <point x="67" y="501"/>
      <point x="40" y="479"/>
      <point x="40" y="450" type="curve" smooth="yes"/>
      <point x="40" y="412"/>
      <point x="84" y="397"/>
      <point x="159" y="397" type="curve" smooth="yes"/>
      <point x="260" y="397"/>
      <point x="332" y="432"/>
      <point x="332" y="486" type="curve" smooth="yes"/>
      <point x="332" y="525"/>
      <point x="291" y="543"/>
      <point x="221" y="543" type="curve"/>
      <point x="222" y="546" type="line"/>
      <point x="286" y="552"/>
      <point x="334" y="576"/>
      <point x="334" y="619" type="curve" smooth="yes"/>
      <point x="334" y="662"/>
      <point x="275" y="678"/>
      <point x="209" y="678" type="curve" smooth="yes"/>
    </contour>
  </outline>
</glyph>
<glyph name="acute" format="1">
  <advance width="266"/>
  <unicode hex="00B4"/>
  <outline>
    <contour>
      <point x="301" y="629"/>
      <point x="259" y="653"/>
      <point x="236" y="653" type="curve" smooth="yes"/>
      <point x="221" y="653"/>
      <point x="216" y="647"/>
      <point x="196" y="628" type="curve" smooth="yes"/>
      <point x="87" y="524" type="line" smooth="yes"/>
      <point x="70" y="508"/>
      <point x="67" y="503"/>
      <point x="67" y="494" type="curve" smooth="yes"/>
      <point x="67" y="488"/>
      <point x="70" y="485"/>
      <point x="76" y="485" type="curve" smooth="yes"/>
      <point x="84" y="485"/>
      <point x="96" y="490"/>
      <point x="102" y="494" type="curve"/>
      <point x="284" y="593" type="line" smooth="yes"/>
      <point x="297" y="600"/>
      <point x="301" y="606"/>
      <point x="301" y="613" type="curve" smooth="yes"/>
    </contour>
    <contour>
      <point x="131" y="420" type="move" name="_top"/>
    </contour>
  </outline>
</glyph>
<glyph name="paragraph" format="1">
  <advance width="484"/>
  <unicode hex="00B6"/>
  <outline>
    <contour>
      <point x="59" y="336"/>
      <point x="121" y="288"/>
      <point x="230" y="288" type="curve"/>
      <point x="152" y="-269" type="line"/>
      <point x="199" y="-269" type="line"/>
      <point x="310" y="518" type="line" smooth="yes"/>
      <point x="314" y="545"/>
      <point x="330" y="556"/>
      <point x="351" y="556" type="curve" smooth="yes"/>
      <point x="379" y="556" type="line"/>
      <point x="262" y="-269" type="line"/>
      <point x="309" y="-269" type="line"/>
      <point x="426" y="556" type="line"/>
      <point x="513" y="556" type="line"/>
      <point x="518" y="597" type="line"/>
      <point x="275" y="597" type="line" smooth="yes"/>
      <point x="143" y="597"/>
      <point x="59" y="528"/>
      <point x="59" y="421" type="curve" smooth="yes"/>
    </contour>
  </outline>
</glyph>
<glyph name="onesuperior" format="1">
  <advance width="234"/>
  <unicode hex="00B9"/>
  <outline>
    <contour>
      <point x="232" y="682" type="line"/>
      <point x="209" y="672"/>
      <point x="135" y="642"/>
      <point x="73" y="634" type="curve"/>
      <point x="75" y="601" type="line"/>
      <point x="91" y="604"/>
      <point x="113" y="608"/>
      <point x="118" y="608" type="curve" smooth="yes"/>
      <point x="123" y="608"/>
      <point x="125" y="605"/>
      <point x="124" y="600" type="curve" smooth="yes"/>
      <point x="102" y="439" type="line" smooth="yes"/>
      <point x="101" y="433"/>
      <point x="97" y="430"/>
      <point x="90" y="430" type="curve" smooth="yes"/>
      <point x="56" y="431" type="line"/>
      <point x="52" y="403" type="line"/>
      <point x="249" y="403" type="line"/>
      <point x="253" y="431" type="line"/>
      <point x="227" y="430" type="line"/>
      <point x="221" y="430"/>
      <point x="219" y="433"/>
      <point x="220" y="439" type="curve" smooth="yes"/>
      <point x="254" y="682" type="line"/>
    </contour>
  </outline>
</glyph>
<glyph name="threequarters" format="1">
  <advance width="587"/>
  <unicode hex="00BE"/>
  <outline>
    <contour>
      <point x="379" y="59" type="line"/>
      <point x="376" y="37" type="line" smooth="yes"/>
      <point x="375" y="30"/>
      <point x="371" y="27"/>
      <point x="364" y="27" type="curve" smooth="yes"/>
      <point x="328" y="28" type="line"/>
      <point x="324" y="0" type="line"/>
      <point x="517" y="0" type="line"/>
      <point x="521" y="28" type="line"/>
      <point x="502" y="27" type="line"/>
      <point x="495" y="27"/>
      <point x="493" y="30"/>
      <point x="494" y="37" type="curve" smooth="yes"/>
      <point x="497" y="59" type="line"/>
      <point x="534" y="59" type="line"/>
      <point x="540" y="102" type="line"/>
      <point x="503" y="102" type="line"/>
      <point x="527" y="274" type="line"/>
      <point x="461" y="274" type="line"/>
      <point x="256" y="98" type="line"/>
      <point x="251" y="59" type="line"/>
    </contour>
    <contour>
      <point x="406" y="188" type="line"/>
      <point x="398" y="197" type="line"/>
      <point x="385" y="102" type="line"/>
      <point x="285" y="102" type="line"/>
      <point x="289" y="90" type="line"/>
    </contour>
    <component base="fraction" xOffset="237"/>
    <component base="threesuperior" xOffset="14" yOffset="-71"/>
  </outline>
</glyph>
<glyph name="questiondown" format="1">
  <advance width="419"/>
  <unicode hex="00BF"/>
  <outline>
    <contour>
      <point x="165" y="192" type="line"/>
      <point x="188" y="176"/>
      <point x="199" y="151"/>
      <point x="199" y="129" type="curve" smooth="yes"/>
      <point x="199" y="31"/>
      <point x="-32" y="-3"/>
      <point x="-32" y="-137" type="curve" smooth="yes"/>
      <point x="-32" y="-200"/>
      <point x="32" y="-235"/>
      <point x="156" y="-235" type="curve" smooth="yes"/>
      <point x="270" y="-235"/>
      <point x="359" y="-207"/>
      <point x="359" y="-135" type="curve" smooth="yes"/>
      <point x="359" y="-104"/>
      <point x="339" y="-75"/>
      <point x="293" y="-75" type="curve" smooth="yes"/>
      <point x="257" y="-75"/>
      <point x="217" y="-93"/>
      <point x="217" y="-135" type="curve" smooth="yes"/>
      <point x="217" y="-145"/>
      <point x="219" y="-155"/>
      <point x="219" y="-164" type="curve" smooth="yes"/>
      <point x="219" y="-185"/>
      <point x="202" y="-198"/>
      <point x="178" y="-198" type="curve" smooth="yes"/>
      <point x="147" y="-198"/>
      <point x="125" y="-175"/>
      <point x="125" y="-138" type="curve" smooth="yes"/>
      <point x="125" y="-28"/>
      <point x="286" y="7"/>
      <point x="286" y="106" type="curve" smooth="yes"/>
      <point x="286" y="166"/>
      <point x="226" y="210"/>
      <point x="187" y="220" type="curve"/>
    </contour>
    <contour>
      <point x="189" y="445"/>
      <point x="139" y="406"/>
      <point x="139" y="356" type="curve" smooth="yes"/>
      <point x="139" y="316"/>
      <point x="175" y="284"/>
      <point x="230" y="284" type="curve" smooth="yes"/>
      <point x="293" y="284"/>
      <point x="342" y="324"/>
      <point x="342" y="373" type="curve" smooth="yes"/>
      <point x="342" y="414"/>
      <point x="307" y="445"/>
      <point x="253" y="445" type="curve" smooth="yes"/>
    </contour>
  </outline>
</glyph>
<glyph name="AE" format="1">
  <advance width="855"/>
  <unicode hex="00C6"/>
  <outline>
    <contour>
      <point x="836" y="598"/>
      <point x="820" y="597"/>
      <point x="801" y="597" type="curve" smooth="yes"/>
      <point x="330" y="597" type="line"/>
      <point x="324" y="555" type="line"/>
      <point x="375" y="557" type="line"/>
      <point x="386" y="557"/>
      <point x="396" y="545"/>
      <point x="387" y="533" type="curve" smooth="yes"/>
      <point x="59" y="96" type="line" smooth="yes"/>
      <point x="27" y="53"/>
      <point x="9" y="34"/>
      <point x="-10" y="37" type="curve"/>
      <point x="-40" y="40" type="line"/>
      <point x="-46" y="0" type="line"/>
      <point x="143" y="0" type="line"/>
      <point x="149" y="40" type="line"/>
      <point x="97" y="37" type="line" smooth="yes"/>
      <point x="64" y="34"/>
      <point x="85" y="71"/>
      <point x="99" y="90" type="curve" smooth="yes"/>
      <point x="164" y="178" type="line"/>
      <point x="388" y="178" type="line"/>
      <point x="394" y="62" type="line"/>
      <point x="395" y="50"/>
      <point x="385" y="36"/>
      <point x="368" y="37" type="curve" smooth="yes"/>
      <point x="312" y="40" type="line"/>
      <point x="306" y="0" type="line"/>
      <point x="683" y="0" type="line" smooth="yes"/>
      <point x="700" y="0"/>
      <point x="741" y="0"/>
      <point x="781" y="-3" type="curve"/>
      <point x="805" y="171" type="line"/>
      <point x="768" y="171" type="line"/>
      <point x="756" y="84"/>
      <point x="702" y="36"/>
      <point x="608" y="36" type="curve" smooth="yes"/>
      <point x="572" y="36" type="line" smooth="yes"/>
      <point x="561" y="36"/>
      <point x="555" y="44"/>
      <point x="554" y="55" type="curve"/>
      <point x="540" y="286" type="line"/>
      <point x="589" y="286" type="line" smooth="yes"/>
      <point x="632" y="286"/>
      <point x="659" y="244"/>
      <point x="652" y="190" type="curve"/>
      <point x="688" y="190" type="line"/>
      <point x="721" y="426" type="line"/>
      <point x="683" y="426" type="line"/>
      <point x="674" y="365"/>
      <point x="636" y="324"/>
      <point x="593" y="324" type="curve" smooth="yes"/>
      <point x="540" y="324" type="line"/>
      <point x="530" y="559" type="line"/>
      <point x="662" y="559" type="line" smooth="yes"/>
      <point x="758" y="559"/>
      <point x="799" y="524"/>
      <point x="787" y="443" type="curve"/>
      <point x="823" y="443" type="line"/>
      <point x="845" y="599" type="line"/>
    </contour>
    <contour>
      <point x="386" y="216" type="line"/>
      <point x="193" y="216" type="line"/>
      <point x="375" y="459" type="line"/>
    </contour>
    <contour>
      <point x="527" y="598" type="move" name="top"/>
    </contour>
  </outline>
</glyph>
<glyph name="multiply" format="1">
  <advance width="460"/>
  <unicode hex="00D7"/>
  <outline>
    <contour>
      <point x="242" y="306" type="line"/>
      <point x="131" y="437" type="line"/>
      <point x="87" y="398" type="line"/>
      <point x="200" y="268" type="line"/>
      <point x="48" y="136" type="line"/>
      <point x="83" y="97" type="line"/>
      <point x="232" y="228" type="line"/>
      <point x="347" y="97" type="line"/>
      <point x="390" y="135" type="line"/>
      <point x="277" y="267" type="line"/>
      <point x="427" y="398" type="line"/>
      <point x="393" y="438" type="line"/>
    </contour>
  </outline>
</glyph>
<glyph name="Oslash" format="1">
  <advance width="686"/>
  <unicode hex="00D8"/>
  <outline>
    <contour>
      <point x="640" y="661" type="line"/>
      <point x="597" y="690" type="line"/>
      <point x="44" y="-70" type="line"/>
      <point x="88" y="-96" type="line"/>
    </contour>
    <component base="O"/>
    <contour>
      <point x="377" y="598" type="move" name="top"/>
    </contour>
  </outline>
</glyph>
<glyph name="germandbls" format="1">
  <advance width="605"/>
  <unicode hex="00DF"/>
  <outline>
    <contour>
      <point x="62" y="72" type="line"/>
      <point x="49" y="-123"/>
      <point x="29" y="-208"/>
      <point x="-16" y="-208" type="curve" smooth="yes"/>
      <point x="-27" y="-208"/>
      <point x="-43" y="-203"/>
      <point x="-43" y="-177" type="curve" smooth="yes"/>
      <point x="-43" y="-150"/>
      <point x="-26" y="-138"/>
      <point x="-26" y="-116" type="curve" smooth="yes"/>
      <point x="-26" y="-90"/>
      <point x="-49" y="-77"/>
      <point x="-80" y="-77" type="curve" smooth="yes"/>
      <point x="-135" y="-77"/>
      <point x="-160" y="-117"/>
      <point x="-160" y="-152" type="curve" smooth="yes"/>
      <point x="-160" y="-204"/>
      <point x="-104" y="-245"/>
      <point x="-30" y="-245" type="curve" smooth="yes"/>
      <point x="114" y="-245"/>
      <point x="188" y="-88"/>
      <point x="212" y="102" type="curve" smooth="yes"/>
      <point x="251" y="454" type="line"/>
      <point x="264" y="652"/>
      <point x="311" y="693"/>
      <point x="362" y="693" type="curve" smooth="yes"/>
      <point x="412" y="693"/>
      <point x="419" y="661"/>
      <point x="419" y="611" type="curve" smooth="yes"/>
      <point x="419" y="560"/>
      <point x="402" y="514"/>
      <point x="379" y="481" type="curve" smooth="yes"/>
      <point x="343" y="428"/>
      <point x="290" y="408"/>
      <point x="290" y="329" type="curve" smooth="yes"/>
      <point x="290" y="207"/>
      <point x="429" y="228"/>
      <point x="429" y="105" type="curve" smooth="yes"/>
      <point x="429" y="50"/>
      <point x="401" y="21"/>
      <point x="372" y="21" type="curve" smooth="yes"/>
      <point x="358" y="21"/>
      <point x="355" y="29"/>
      <point x="355" y="36" type="curve" smooth="yes"/>
      <point x="355" y="52"/>
      <point x="369" y="67"/>
      <point x="369" y="89" type="curve" smooth="yes"/>
      <point x="369" y="108"/>
      <point x="359" y="125"/>
      <point x="326" y="125" type="curve" smooth="yes"/>
      <point x="282" y="125"/>
      <point x="254" y="99"/>
      <point x="254" y="58" type="curve" smooth="yes"/>
      <point x="254" y="15"/>
      <point x="294" y="-8"/>
      <point x="368" y="-8" type="curve" smooth="yes"/>
      <point x="486" y="-8"/>
      <point x="574" y="48"/>
      <point x="574" y="147" type="curve" smooth="yes"/>
      <point x="574" y="285"/>
      <point x="408" y="271"/>
      <point x="408" y="411" type="curve" smooth="yes"/>
      <point x="408" y="433"/>
      <point x="422" y="454"/>
      <point x="440" y="471" type="curve" smooth="yes"/>
      <point x="480" y="509"/>
      <point x="561" y="548"/>
      <point x="561" y="631" type="curve" smooth="yes"/>
      <point x="561" y="694"/>
      <point x="489" y="728"/>
      <point x="397" y="728" type="curve" smooth="yes"/>
      <point x="212" y="728"/>
      <point x="123" y="604"/>
      <point x="103" y="440" type="curve" smooth="yes"/>
    </contour>
  </outline>
</glyph>
<glyph name="ae" format="1">
  <advance width="634"/>
  <unicode hex="00E6"/>
  <outline>
    <contour>
      <point x="142" y="417"/>
      <point x="12" y="266"/>
      <point x="12" y="112" type="curve" smooth="yes"/>
      <point x="12" y="36"/>
      <point x="45" y="-10"/>
      <point x="104" y="-10" type="curve" smooth="yes"/>
      <point x="170" y="-10"/>
      <point x="250" y="35"/>
      <point x="302" y="173" type="curve"/>
      <point x="297" y="227" type="line"/>
      <point x="265" y="148"/>
      <point x="219" y="75"/>
      <point x="191" y="75" type="curve" smooth="yes"/>
      <point x="169" y="75"/>
      <point x="157" y="95"/>
      <point x="157" y="133" type="curve" smooth="yes"/>
      <point x="157" y="167"/>
      <point x="161" y="206"/>
      <point x="174" y="244" type="curve" smooth="yes"/>
      <point x="197" y="323"/>
      <point x="260" y="377"/>
      <point x="311" y="377" type="curve" smooth="yes"/>
      <point x="355" y="377"/>
      <point x="375" y="360"/>
      <point x="386" y="327" type="curve"/>
      <point x="407" y="349" type="line"/>
      <point x="403" y="396"/>
      <point x="356" y="417"/>
      <point x="313" y="417" type="curve" smooth="yes"/>
    </contour>
    <component base="e" xOffset="229"/>
    <contour>
      <point x="346" y="420" type="move" name="top"/>
    </contour>
  </outline>
</glyph>
<glyph name="divide" format="1">
  <advance width="451"/>
  <unicode hex="00F7"/>
  <outline>
    <contour>
      <point x="31" y="300" type="line"/>
      <point x="23" y="239" type="line"/>
      <point x="445" y="239" type="line"/>
      <point x="453" y="300" type="line"/>
    </contour>
    <contour>
      <point x="169" y="163"/>
      <point x="128" y="133"/>
      <point x="128" y="88" type="curve" smooth="yes"/>
      <point x="128" y="50"/>
      <point x="158" y="28"/>
      <point x="203" y="28" type="curve" smooth="yes"/>
      <point x="257" y="28"/>
      <point x="298" y="57"/>
      <point x="298" y="104" type="curve" smooth="yes"/>
      <point x="298" y="140"/>
      <point x="268" y="163"/>
      <point x="222" y="163" type="curve" smooth="yes"/>
    </contour>
    <contour>
      <point x="217" y="506"/>
      <point x="176" y="476"/>
      <point x="176" y="431" type="curve" smooth="yes"/>
      <point x="176" y="393"/>
      <point x="206" y="371"/>
      <point x="251" y="371" type="curve" smooth="yes"/>
      <point x="306" y="371"/>
      <point x="346" y="400"/>
      <point x="346" y="447" type="curve" smooth="yes"/>
      <point x="346" y="483"/>
      <point x="316" y="506"/>
      <point x="270" y="506" type="curve" smooth="yes"/>
    </contour>
  </outline>
</glyph>
<glyph name="oslash" format="1">
  <advance width="459"/>
  <unicode hex="00F8"/>
  <outline>
    <contour>
      <point x="443" y="482" type="line"/>
      <point x="411" y="504" type="line"/>
      <point x="18" y="-67" type="line"/>
      <point x="54" y="-85" type="line"/>
    </contour>
    <component base="o"/>
    <contour>
      <point x="259" y="420" type="move" name="top"/>
    </contour>
  </outline>
</glyph>
<glyph name="thorn" format="1">
  <advance width="506"/>
  <unicode hex="00FE"/>
  <outline>
    <contour>
      <point x="175" y="730"/>
      <point x="116" y="720"/>
      <point x="52" y="698" type="curve"/>
      <point x="57" y="663" type="line"/>
      <point x="65" y="665"/>
      <point x="74" y="665"/>
      <point x="81" y="665" type="curve" smooth="yes"/>
      <point x="101" y="665"/>
      <point x="114" y="657"/>
      <point x="114" y="641" type="curve" smooth="yes"/>
      <point x="114" y="600"/>
      <point x="16.1957" y="-117"/>
      <point x="6" y="-185" type="curve" smooth="yes"/>
      <point x="4" y="-198"/>
      <point x="0" y="-204"/>
      <point x="-8" y="-205" type="curve"/>
      <point x="-39" y="-203" type="line"/>
      <point x="-44" y="-239" type="line"/>
      <point x="210" y="-239" type="line"/>
      <point x="215" y="-203" type="line"/>
      <point x="152" y="-205" type="line" smooth="yes"/>
      <point x="146" y="-205"/>
      <point x="143" y="-201"/>
      <point x="143" y="-193" type="curve" smooth="yes"/>
      <point x="143.946" y="-150"/>
      <point x="163.681" y="-9"/>
      <point x="180.202" y="103.011" type="curve"/>
      <point x="191.453" y="210.967" type="line"/>
      <point x="203.589" y="307.104"/>
      <point x="223.927" y="435.878"/>
      <point x="241" y="539" type="curve" smooth="yes"/>
      <point x="255" y="620"/>
      <point x="268" y="682"/>
      <point x="268" y="698" type="curve" smooth="yes"/>
      <point x="268" y="726"/>
      <point x="249" y="730"/>
      <point x="222" y="730" type="curve" smooth="yes"/>
    </contour>
    <contour>
      <point x="336" y="352"/>
      <point x="348" y="332"/>
      <point x="348" y="294" type="curve" smooth="yes"/>
      <point x="348" y="260"/>
      <point x="342" y="221"/>
      <point x="331" y="183" type="curve" smooth="yes"/>
      <point x="306" y="90"/>
      <point x="264" y="30"/>
      <point x="222" y="30" type="curve" smooth="yes"/>
      <point x="195" y="30"/>
      <point x="182" y="49"/>
      <point x="182" y="72" type="curve" smooth="yes"/>
      <point x="182" y="168"/>
      <point x="274" y="352"/>
      <point x="318" y="352" type="curve" smooth="yes"/>
    </contour>
    <contour>
      <point x="326" y="437"/>
      <point x="238" y="381"/>
      <point x="190" y="208" type="curve"/>
      <point x="162" y="62" type="line"/>
      <point x="162" y="12"/>
      <point x="203" y="-10"/>
      <point x="242" y="-10" type="curve" smooth="yes"/>
      <point x="387" y="-10"/>
      <point x="497" y="148"/>
      <point x="497" y="315" type="curve" smooth="yes"/>
      <point x="497" y="391"/>
      <point x="450" y="437"/>
      <point x="395" y="437" type="curve" smooth="yes"/>
    </contour>
  </outline>
</glyph>
<glyph name="dotlessi" format="1">
  <advance width="281"/>
  <unicode hex="0131"/>
  <outline>
    <contour>
      <point x="244" y="90" type="line"/>
      <point x="227" y="79"/>
      <point x="213" y="77"/>
      <point x="208" y="77" type="curve" smooth="yes"/>
      <point x="192" y="77"/>
      <point x="191" y="93"/>
      <point x="191" y="104" type="curve" smooth="yes"/>
      <point x="191" y="126"/>
      <point x="197" y="177"/>
      <point x="206" y="230" type="curve" smooth="yes"/>
      <point x="220" y="310"/>
      <point x="238" y="386"/>
      <point x="238" y="401" type="curve" smooth="yes"/>
      <point x="238" y="429"/>
      <point x="218" y="433"/>
      <point x="194" y="433" type="curve" smooth="yes"/>
      <point x="146" y="433"/>
      <point x="88" y="423"/>
      <point x="33" y="407" type="curve"/>
      <point x="38" y="368" type="line"/>
      <point x="42" y="369"/>
      <point x="49" y="370"/>
      <point x="54" y="370" type="curve" smooth="yes"/>
      <point x="68" y="370"/>
      <point x="84" y="367"/>
      <point x="84" y="345" type="curve" smooth="yes"/>
      <point x="84" y="323"/>
      <point x="80" y="283"/>
      <point x="72" y="223" type="curve" smooth="yes"/>
      <point x="61" y="146"/>
      <point x="46" y="68"/>
      <point x="46" y="36" type="curve" smooth="yes"/>
      <point x="46" y="5"/>
      <point x="67" y="-10"/>
      <point x="99" y="-10" type="curve" smooth="yes"/>
      <point x="140" y="-10"/>
      <point x="196" y="16"/>
      <point x="255" y="60" type="curve"/>
    </contour>
    <contour>
      <point x="180" y="13" type="move" name="ogonek"/>
    </contour>
    <contour>
      <point x="168" y="420" type="move" name="top"/>
    </contour>
  </outline>
</glyph>
<glyph name="lslash" format="1">
  <advance width="269"/>
  <unicode hex="0142"/>
  <outline>
    <contour>
      <point x="118" y="403" type="line"/>
      <point x="44" y="346" type="line"/>
      <point x="34" y="287" type="line"/>
      <point x="108" y="344" type="line"/>
    </contour>
    <contour>
      <point x="204" y="412" type="line"/>
      <point x="279" y="469" type="line"/>
      <point x="289" y="529" type="line"/>
      <point x="215" y="471" type="line"/>
    </contour>
    <component base="l"/>
  </outline>
</glyph>
<glyph name="commaaccent" format="1">
  <advance width="260"/>
  <unicode hex="0326"/>
  <outline>
    <contour>
      <point x="41" y="-34"/>
      <point x="17" y="-72"/>
      <point x="17" y="-105" type="curve" smooth="yes"/>
      <point x="17" y="-129"/>
      <point x="29" y="-151"/>
      <point x="55" y="-151" type="curve" smooth="yes"/>
      <point x="67" y="-151"/>
      <point x="79" y="-156"/>
      <point x="79" y="-175" type="curve" smooth="yes"/>
      <point x="79" y="-196"/>
      <point x="51" y="-222"/>
      <point x="24" y="-238" type="curve"/>
      <point x="43" y="-263" type="line"/>
      <point x="105" y="-235"/>
      <point x="169" y="-176"/>
      <point x="169" y="-107" type="curve" smooth="yes"/>
      <point x="169" y="-69"/>
      <point x="142" y="-34"/>
      <point x="94" y="-34" type="curve" smooth="yes"/>
    </contour>
    <contour>
      <point x="96" y="0" type="move" name="_bottom"/>
    </contour>
  </outline>
</glyph>
<glyph name="Omega" format="1">
  <advance width="670"/>
  <unicode hex="03A9"/>
  <outline>
    <contour>
      <point x="192" y="607"/>
      <point x="63" y="481"/>
      <point x="63" y="323" type="curve" smooth="yes"/>
      <point x="63" y="208"/>
      <point x="132" y="143"/>
      <point x="235" y="48" type="curve"/>
      <point x="213" y="105" type="line"/>
      <point x="126" y="105" type="line" smooth="yes"/>
      <point x="73" y="105"/>
      <point x="52" y="123"/>
      <point x="53" y="169" type="curve"/>
      <point x="17" y="169" type="line"/>
      <point x="17" y="115"/>
      <point x="17" y="27"/>
      <point x="13" y="-3" type="curve"/>
      <point x="23" y="0"/>
      <point x="58" y="0"/>
      <point x="106" y="0" type="curve" smooth="yes"/>
      <point x="257" y="0" type="line"/>
      <point x="267" y="55" type="line"/>
      <point x="237" y="110"/>
      <point x="214" y="178"/>
      <point x="214" y="275" type="curve" smooth="yes"/>
      <point x="214" y="476"/>
      <point x="258" y="570"/>
      <point x="385" y="570" type="curve" smooth="yes"/>
      <point x="456" y="570"/>
      <point x="494" y="533"/>
      <point x="494" y="421" type="curve" smooth="yes"/>
      <point x="494" y="243"/>
      <point x="434" y="147"/>
      <point x="359" y="55" type="curve"/>
      <point x="353" y="0" type="line"/>
      <point x="504" y="0" type="line" smooth="yes"/>
      <point x="552" y="0"/>
      <point x="587" y="0"/>
      <point x="597" y="-3" type="curve"/>
      <point x="601" y="27"/>
      <point x="625" y="115"/>
      <point x="641" y="169" type="curve"/>
      <point x="605" y="169" type="line"/>
      <point x="592" y="123"/>
      <point x="567" y="105"/>
      <point x="514" y="105" type="curve" smooth="yes"/>
      <point x="427" y="105" type="line"/>
      <point x="389" y="48" type="line"/>
      <point x="553" y="170"/>
      <point x="647" y="232"/>
      <point x="647" y="388" type="curve" smooth="yes"/>
      <point x="647" y="511"/>
      <point x="556" y="607"/>
      <point x="390" y="607" type="curve" smooth="yes"/>
    </contour>
  </outline>
</glyph>
<glyph name="quoteright" format="1">
  <advance width="271"/>
  <unicode hex="2019"/>
  <outline>
    <contour>
      <point x="147" y="638"/>
      <point x="113" y="597"/>
      <point x="113" y="555" type="curve" smooth="yes"/>
      <point x="113" y="519"/>
      <point x="141" y="500"/>
      <point x="171" y="500" type="curve" smooth="yes"/>
      <point x="187" y="500"/>
      <point x="195" y="493"/>
      <point x="195" y="482" type="curve" smooth="yes"/>
      <point x="195" y="448"/>
      <point x="157" y="420"/>
      <point x="120" y="405" type="curve"/>
      <point x="127" y="379" type="line"/>
      <point x="208" y="412"/>
      <point x="291" y="467"/>
      <point x="291" y="557" type="curve" smooth="yes"/>
      <point x="291" y="599"/>
      <point x="262" y="638"/>
      <point x="211" y="638" type="curve" smooth="yes"/>
    </contour>
  </outline>
</glyph>
<glyph name="dagger" format="1">
  <advance width="528"/>
  <unicode hex="2020"/>
  <outline>
    <contour>
      <point x="269" y="410" type="line"/>
      <point x="265" y="350"/>
      <point x="202" y="331"/>
      <point x="202" y="295" type="curve" smooth="yes"/>
      <point x="202" y="276"/>
      <point x="217" y="237"/>
      <point x="210" y="156" type="curve" smooth="yes"/>
      <point x="194" y="11"/>
      <point x="186" y="-150"/>
      <point x="209" y="-150" type="curve" smooth="yes"/>
      <point x="232" y="-150"/>
      <point x="270" y="11"/>
      <point x="294" y="156" type="curve" smooth="yes"/>
      <point x="312" y="247"/>
      <point x="342" y="283"/>
      <point x="342" y="302" type="curve" smooth="yes"/>
      <point x="342" y="333"/>
      <point x="293" y="346"/>
      <point x="307" y="410" type="curve"/>
    </contour>
    <contour>
      <point x="395" y="468"/>
      <point x="400" y="416"/>
      <point x="292" y="416" type="curve" smooth="yes"/>
      <point x="284" y="416" type="line" smooth="yes"/>
      <point x="178" y="416"/>
      <point x="192" y="468"/>
      <point x="127" y="468" type="curve" smooth="yes"/>
      <point x="90" y="468"/>
      <point x="61" y="440"/>
      <point x="61" y="391" type="curve" smooth="yes"/>
      <point x="61" y="367"/>
      <point x="71" y="348"/>
      <point x="97" y="348" type="curve" smooth="yes"/>
      <point x="133" y="348"/>
      <point x="137" y="387"/>
      <point x="164" y="387" type="curve" smooth="yes"/>
      <point x="184" y="387"/>
      <point x="186" y="370"/>
      <point x="207" y="370" type="curve" smooth="yes"/>
      <point x="228" y="370"/>
      <point x="250" y="377"/>
      <point x="281" y="403" type="curve"/>
      <point x="293" y="403" type="line"/>
      <point x="316" y="377"/>
      <point x="336" y="370"/>
      <point x="357" y="370" type="curve" smooth="yes"/>
      <point x="378" y="370"/>
      <point x="384" y="387"/>
      <point x="406" y="387" type="curve" smooth="yes"/>
      <point x="432" y="387"/>
      <point x="424" y="348"/>
      <point x="462" y="348" type="curve" smooth="yes"/>
      <point x="498" y="348"/>
      <point x="512" y="382"/>
      <point x="512" y="414" type="curve" smooth="yes"/>
      <point x="512" y="449"/>
      <point x="493" y="468"/>
      <point x="465" y="468" type="curve" smooth="yes"/>
    </contour>
    <contour>
      <point x="272" y="640"/>
      <point x="232" y="604"/>
      <point x="232" y="570" type="curve" smooth="yes"/>
      <point x="232" y="538"/>
      <point x="274" y="540"/>
      <point x="274" y="516" type="curve" smooth="yes"/>
      <point x="274" y="495"/>
      <point x="235" y="494"/>
      <point x="235" y="462" type="curve" smooth="yes"/>
      <point x="235" y="441"/>
      <point x="253" y="437"/>
      <point x="268" y="405" type="curve"/>
      <point x="306" y="405" type="line"/>
      <point x="332" y="440"/>
      <point x="356" y="463"/>
      <point x="356" y="470" type="curve" smooth="yes"/>
      <point x="356" y="492"/>
      <point x="330" y="494"/>
      <point x="330" y="512" type="curve" smooth="yes"/>
      <point x="330" y="519"/>
      <point x="389" y="538"/>
      <point x="389" y="580" type="curve" smooth="yes"/>
      <point x="389" y="611"/>
      <point x="362" y="640"/>
      <point x="320" y="640" type="curve" smooth="yes"/>
    </contour>
  </outline>
</glyph>
<glyph name="literSign" format="1">
  <advance width="433"/>
  <unicode hex="2113"/>
  <outline>
    <contour>
      <point x="148" y="245" type="line"/>
      <point x="108" y="222"/>
      <point x="60" y="200"/>
      <point x="4" y="178" type="curve"/>
      <point x="9" y="146" type="line"/>
      <point x="61" y="166"/>
      <point x="107" y="187"/>
      <point x="148" y="209" type="curve"/>
    </contour>
    <contour>
      <point x="191" y="223" type="line"/>
      <point x="399" y="328"/>
      <point x="425" y="447"/>
      <point x="425" y="509" type="curve" smooth="yes"/>
      <point x="425" y="573"/>
      <point x="386" y="607"/>
      <point x="312" y="607" type="curve" smooth="yes"/>
      <point x="171" y="607"/>
      <point x="126" y="492"/>
      <point x="105" y="387" type="curve" smooth="yes"/>
      <point x="59" y="151"/>
      <point x="58" y="117"/>
      <point x="58" y="107" type="curve" smooth="yes"/>
      <point x="58" y="28"/>
      <point x="113" y="-6"/>
      <point x="186" y="-6" type="curve" smooth="yes"/>
      <point x="281" y="-6"/>
      <point x="308" y="26"/>
      <point x="352" y="90" type="curve"/>
      <point x="325" y="105" type="line"/>
      <point x="299" y="57"/>
      <point x="269" y="33"/>
      <point x="244" y="33" type="curve" smooth="yes"/>
      <point x="214" y="33"/>
      <point x="201" y="45"/>
      <point x="201" y="79" type="curve" smooth="yes"/>
      <point x="201" y="131"/>
      <point x="241" y="308"/>
      <point x="252" y="384" type="curve" smooth="yes"/>
      <point x="255" y="406"/>
      <point x="256" y="431"/>
      <point x="260" y="454" type="curve" smooth="yes"/>
      <point x="265" y="495"/>
      <point x="278" y="570"/>
      <point x="339" y="570" type="curve" smooth="yes"/>
      <point x="368" y="570"/>
      <point x="383" y="548"/>
      <point x="383" y="506" type="curve" smooth="yes"/>
      <point x="383" y="424"/>
      <point x="348" y="341"/>
      <point x="190" y="260" type="curve"/>
    </contour>
  </outline>
</glyph>
<glyph name="partialdiff" format="1">
  <advance width="484"/>
  <unicode hex="2202"/>
  <outline>
    <contour>
      <point x="206" y="605"/>
      <point x="100" y="571"/>
      <point x="100" y="496" type="curve" smooth="yes"/>
      <point x="100" y="468"/>
      <point x="116" y="441"/>
      <point x="158" y="441" type="curve" smooth="yes"/>
      <point x="219" y="441"/>
      <point x="235" y="473"/>
      <point x="235" y="496" type="curve" smooth="yes"/>
      <point x="235" y="509"/>
      <point x="232" y="522"/>
      <point x="232" y="533" type="curve" smooth="yes"/>
      <point x="232" y="556"/>
      <point x="247" y="568"/>
      <point x="276" y="568" type="curve" smooth="yes"/>
      <point x="323" y="568"/>
      <point x="347" y="509"/>
      <point x="347" y="421" type="curve" smooth="yes"/>
      <point x="347" y="329"/>
      <point x="290" y="26"/>
      <point x="202" y="26" type="curve" smooth="yes"/>
      <point x="169" y="26"/>
      <point x="151" y="46"/>
      <point x="151" y="93" type="curve" smooth="yes"/>
      <point x="151" y="208"/>
      <point x="202" y="278"/>
      <point x="264" y="278" type="curve" smooth="yes"/>
      <point x="297" y="278"/>
      <point x="326" y="254"/>
      <point x="335" y="219" type="curve"/>
      <point x="374" y="243" type="line"/>
      <point x="334" y="308"/>
      <point x="280" y="325"/>
      <point x="207" y="325" type="curve" smooth="yes"/>
      <point x="100" y="325"/>
      <point x="10" y="247"/>
      <point x="10" y="134" type="curve" smooth="yes"/>
      <point x="10" y="23"/>
      <point x="122" y="-11"/>
      <point x="200" y="-11" type="curve" smooth="yes"/>
      <point x="435" y="-11"/>
      <point x="487" y="270"/>
      <point x="487" y="364" type="curve" smooth="yes"/>
      <point x="487" y="521"/>
      <point x="404" y="605"/>
      <point x="286" y="605" type="curve" smooth="yes"/>
    </contour>
  </outline>
</glyph>
<glyph name="radical" format="1">
  <advance width="460"/>
  <unicode hex="221A"/>
  <outline>
    <contour>
      <point x="316" y="121" type="line"/>
      <point x="257" y="377" type="line"/>
      <point x="107" y="349" type="line"/>
      <point x="220" y="-95" type="line"/>
    </contour>
    <contour>
      <point x="34" y="296" type="line"/>
      <point x="259" y="367" type="line"/>
      <point x="251" y="402" type="line"/>
      <point x="27" y="331" type="line"/>
    </contour>
    <contour>
      <point x="220" y="-95" type="line"/>
      <point x="257" y="-95" type="line"/>
      <point x="572" y="786" type="line"/>
      <point x="536" y="786" type="line"/>
    </contour>
  </outline>
</glyph>
<glyph name="infinity" format="1">
  <advance width="552"/>
  <unicode hex="221E"/>
  <outline>
    <contour>
      <point x="253" y="420"/>
      <point x="241" y="198"/>
      <point x="97" y="198" type="curve" smooth="yes"/>
      <point x="61" y="198"/>
      <point x="41" y="212"/>
      <point x="41" y="238" type="curve" smooth="yes"/>
      <point x="41" y="280"/>
      <point x="80" y="301"/>
      <point x="142" y="301" type="curve" smooth="yes"/>
      <point x="195" y="301"/>
      <point x="230" y="285"/>
      <point x="255" y="269" type="curve"/>
      <point x="271" y="287" type="line"/>
      <point x="282" y="364"/>
      <point x="229" y="420"/>
      <point x="158" y="420" type="curve" smooth="yes"/>
      <point x="68" y="420"/>
      <point x="5" y="333"/>
      <point x="5" y="228" type="curve" smooth="yes"/>
      <point x="5" y="144"/>
      <point x="49" y="79"/>
      <point x="139" y="79" type="curve" smooth="yes"/>
      <point x="310" y="79"/>
      <point x="322" y="301"/>
      <point x="467" y="301" type="curve" smooth="yes"/>
      <point x="503" y="301"/>
      <point x="522" y="287"/>
      <point x="522" y="261" type="curve" smooth="yes"/>
      <point x="522" y="220"/>
      <point x="483" y="198"/>
      <point x="422" y="198" type="curve" smooth="yes"/>
      <point x="372" y="198"/>
      <point x="334" y="213"/>
      <point x="308" y="230" type="curve"/>
      <point x="292" y="212" type="line"/>
      <point x="281" y="136"/>
      <point x="334" y="79"/>
      <point x="405" y="79" type="curve" smooth="yes"/>
      <point x="495" y="79"/>
      <point x="558" y="167"/>
      <point x="558" y="271" type="curve" smooth="yes"/>
      <point x="558" y="355"/>
      <point x="514" y="420"/>
      <point x="424" y="420" type="curve" smooth="yes"/>
    </contour>
  </outline>
</glyph>
<glyph name="lozenge" format="1">
  <advance width="460"/>
  <unicode hex="25CA"/>
  <outline>
    <contour>
      <point x="275" y="645" type="line"/>
      <point x="19" y="286" type="line"/>
      <point x="177" y="-79" type="line"/>
      <point x="205" y="-79" type="line"/>
      <point x="460" y="281" type="line"/>
      <point x="303" y="645" type="line"/>
    </contour>
    <contour>
      <point x="286" y="549" type="line"/>
      <point x="400" y="281" type="line"/>
      <point x="214" y="17" type="line"/>
      <point x="199" y="-11" type="line"/>
      <point x="193" y="17" type="line"/>
      <point x="79" y="285" type="line"/>
      <point x="265" y="549" type="line"/>
      <point x="280" y="577" type="line"/>
    </contour>
  </outline>
</glyph>
<glyph name="fi" format="1">
  <advance width="587"/>
  <unicode hex="FB01"/>
  <outline>
    <contour>
      <point x="232" y="700"/>
      <point x="122" y="554"/>
      <point x="100.002" y="403" type="curve" smooth="yes"/>
      <point x="62" y="72" type="line"/>
      <point x="49" y="-123"/>
      <point x="29" y="-208"/>
      <point x="-16" y="-208" type="curve" smooth="yes"/>
      <point x="-27" y="-208"/>
      <point x="-43" y="-203"/>
      <point x="-43" y="-177" type="curve" smooth="yes"/>
      <point x="-43" y="-150"/>
      <point x="-26" y="-138"/>
      <point x="-26" y="-116" type="curve" smooth="yes"/>
      <point x="-26" y="-90"/>
      <point x="-49" y="-77"/>
      <point x="-80" y="-77" type="curve" smooth="yes"/>
      <point x="-135" y="-77"/>
      <point x="-160" y="-117"/>
      <point x="-160" y="-152" type="curve" smooth="yes"/>
      <point x="-160" y="-204"/>
      <point x="-104" y="-245"/>
      <point x="-30" y="-245" type="curve" smooth="yes"/>
      <point x="114" y="-245"/>
      <point x="191" y="-88"/>
      <point x="212" y="102" type="curve" smooth="yes"/>
      <point x="246" y="411" type="line" smooth="yes"/>
      <point x="265" y="585"/>
      <point x="320" y="663"/>
      <point x="367" y="663" type="curve" smooth="yes"/>
      <point x="400" y="663"/>
      <point x="413" y="645"/>
      <point x="413" y="603" type="curve" smooth="yes"/>
      <point x="413" y="568"/>
      <point x="443" y="545"/>
      <point x="489" y="545" type="curve" smooth="yes"/>
      <point x="567" y="545"/>
      <point x="584" y="585"/>
      <point x="584" y="625" type="curve" smooth="yes"/>
      <point x="582" y="681"/>
      <point x="511" y="700"/>
      <point x="405" y="700" type="curve" smooth="yes"/>
    </contour>
    <contour>
      <point x="49" y="430" type="line"/>
      <point x="34" y="389" type="line"/>
      <point x="113" y="389" type="line"/>
      <point x="121" y="430" type="line"/>
    </contour>
    <contour>
      <point x="245" y="430" type="line"/>
      <point x="239" y="389" type="line"/>
      <point x="297" y="389" type="line"/>
      <point x="315" y="405" type="line"/>
      <point x="315" y="430" type="line"/>
    </contour>
    <component base="dotlessi" xOffset="306"/>
  </outline>
</glyph>
<glyph name="f.ss01" format="1">
  <advance width="306"/>
  <outline>
    <contour>
      <point x="141" y="730"/>
      <point x="120" y="574"/>
      <point x="100" y="414" type="curve" smooth="yes"/>
      <point x="62" y="72" type="line"/>
      <point x="49" y="-123"/>
      <point x="29" y="-208"/>
      <point x="-16" y="-208" type="curve" smooth="yes"/>
      <point x="-27" y="-208"/>
      <point x="-43" y="-203"/>
      <point x="-43" y="-177" type="curve" smooth="yes"/>
      <point x="-43" y="-150"/>
      <point x="-26" y="-138"/>
      <point x="-26" y="-116" type="curve" smooth="yes"/>
      <point x="-26" y="-90"/>
      <point x="-49" y="-77"/>
      <point x="-80" y="-77" type="curve" smooth="yes"/>
      <point x="-135" y="-77"/>
      <point x="-160" y="-117"/>
      <point x="-160" y="-152" type="curve" smooth="yes"/>
      <point x="-160" y="-204"/>
      <point x="-104" y="-245"/>
      <point x="-30" y="-245" type="curve" smooth="yes"/>
      <point x="114" y="-245"/>
      <point x="188" y="-88"/>
      <point x="212" y="102" type="curve" smooth="yes"/>
      <point x="246" y="411" type="line" smooth="yes"/>
      <point x="265" y="582"/>
      <point x="221" y="561"/>
      <point x="239" y="649" type="curve" smooth="yes"/>
      <point x="244" y="673"/>
      <point x="253" y="693"/>
      <point x="273" y="693" type="curve" smooth="yes"/>
      <point x="284" y="693"/>
      <point x="292" y="687"/>
      <point x="292" y="677" type="curve" smooth="yes"/>
      <point x="292" y="654"/>
      <point x="275" y="639"/>
      <point x="275" y="619" type="curve" smooth="yes"/>
      <point x="275" y="597"/>
      <point x="296" y="581"/>
      <point x="330" y="581" type="curve" smooth="yes"/>
      <point x="377" y="581"/>
      <point x="396" y="615"/>
      <point x="396" y="642" type="curve" smooth="yes"/>
      <point x="396" y="689"/>
      <point x="352" y="730"/>
      <point x="289" y="730" type="curve" smooth="yes"/>
    </contour>
    <contour>
      <point x="49" y="430" type="line"/>
      <point x="34" y="389" type="line"/>
      <point x="113" y="389" type="line"/>
      <point x="121" y="430" type="line"/>
    </contour>
    <contour>
      <point x="245" y="430" type="line"/>
      <point x="239" y="389" type="line"/>
      <point x="317" y="389" type="line"/>
      <point x="335" y="405" type="line"/>
      <point x="335" y="430" type="line"/>
    </contour>
  </outline>
</glyph>
<glyph name="f.ss03" format="1">
  <advance width="294"/>
  <outline>
    <contour>
      <point x="220" y="700"/>
      <point x="114" y="552"/>
      <point x="100" y="403" type="curve" smooth="yes"/>
      <point x="72" y="114"/>
      <point x="53" y="-47"/>
      <point x="17" y="-239" type="curve"/>
      <point x="171" y="-182" type="line"/>
      <point x="246" y="411" type="line"/>
      <point x="265" y="585"/>
      <point x="320" y="663"/>
      <point x="367" y="663" type="curve" smooth="yes"/>
      <point x="393" y="663"/>
      <point x="407" y="651"/>
      <point x="407" y="627" type="curve" smooth="yes"/>
      <point x="407" y="597"/>
      <point x="457" y="602"/>
      <point x="523" y="602" type="curve"/>
      <point x="523" y="654"/>
      <point x="463" y="700"/>
      <point x="375" y="700" type="curve" smooth="yes"/>
    </contour>
    <contour>
      <point x="49" y="430" type="line"/>
      <point x="34" y="389" type="line"/>
      <point x="113" y="389" type="line"/>
      <point x="121" y="430" type="line"/>
    </contour>
    <contour>
      <point x="245" y="430" type="line"/>
      <point x="239" y="389" type="line"/>
      <point x="297" y="389" type="line"/>
      <point x="315" y="405" type="line"/>
      <point x="315" y="430" type="line"/>
    </contour>
  </outline>
</glyph>
<glyph name="f.ss04" format="1">
  <advance width="306"/>
  <outline>
    <contour>
      <point x="208" y="730"/>
      <point x="122" y="606"/>
      <point x="103" y="440" type="curve" smooth="yes"/>
      <point x="75" y="151"/>
      <point x="53" y="-47"/>
      <point x="17" y="-239" type="curve"/>
      <point x="171" y="-182" type="line"/>
      <point x="251" y="414" type="line"/>
      <point x="263" y="612"/>
      <point x="302" y="693"/>
      <point x="334" y="693" type="curve" smooth="yes"/>
      <point x="350" y="693"/>
      <point x="358" y="684"/>
      <point x="358" y="667" type="curve" smooth="yes"/>
      <point x="358" y="644"/>
      <point x="341" y="626"/>
      <point x="341" y="606" type="curve" smooth="yes"/>
      <point x="341" y="584"/>
      <point x="362" y="568"/>
      <point x="396" y="568" type="curve" smooth="yes"/>
      <point x="453" y="568"/>
      <point x="475" y="611"/>
      <point x="475" y="642" type="curve" smooth="yes"/>
      <point x="475" y="689"/>
      <point x="423" y="730"/>
      <point x="345" y="730" type="curve" smooth="yes"/>
    </contour>
    <contour>
      <point x="49" y="430" type="line"/>
      <point x="34" y="389" type="line"/>
      <point x="113" y="389" type="line"/>
      <point x="121" y="430" type="line"/>
    </contour>
    <contour>
      <point x="245" y="430" type="line"/>
      <point x="239" y="389" type="line"/>
      <point x="297" y="389" type="line"/>
      <point x="315" y="405" type="line"/>
      <point x="315" y="430" type="line"/>
    </contour>
  </outline>
</glyph>
<glyph name="f.ss07" format="1">
  <advance width="306"/>
  <outline>
    <contour>
      <point x="220" y="700"/>
      <point x="122" y="553"/>
      <point x="106" y="403" type="curve" smooth="yes"/>
      <point x="89" y="246"/>
      <point x="63" y="88"/>
      <point x="36" y="-69" type="curve"/>
      <point x="180" y="-39" type="line"/>
      <point x="246" y="411" type="line"/>
      <point x="265" y="585"/>
      <point x="320" y="663"/>
      <point x="367" y="663" type="curve" smooth="yes"/>
      <point x="392" y="663"/>
      <point x="406" y="651"/>
      <point x="406" y="627" type="curve" smooth="yes"/>
      <point x="406" y="604"/>
      <point x="389" y="586"/>
      <point x="389" y="566" type="curve" smooth="yes"/>
      <point x="389" y="544"/>
      <point x="410" y="528"/>
      <point x="444" y="528" type="curve" smooth="yes"/>
      <point x="501" y="528"/>
      <point x="523" y="571"/>
      <point x="523" y="602" type="curve" smooth="yes"/>
      <point x="523" y="654"/>
      <point x="463" y="700"/>
      <point x="375" y="700" type="curve" smooth="yes"/>
    </contour>
    <contour>
      <point x="49" y="430" type="line"/>
      <point x="34" y="389" type="line"/>
      <point x="113" y="389" type="line"/>
      <point x="121" y="430" type="line"/>
    </contour>
    <contour>
      <point x="245" y="430" type="line"/>
      <point x="239" y="389" type="line"/>
      <point x="357" y="389" type="line"/>
      <point x="375" y="405" type="line"/>
      <point x="375" y="430" type="line"/>
    </contour>
  </outline>
</glyph>
<glyph name="f_j.ss01" format="1">
  <advance width="617"/>
  <outline>
    <contour>
      <point x="233" y="700"/>
      <point x="114" y="555"/>
      <point x="101" y="403" type="curve" smooth="yes"/>
      <point x="83" y="189"/>
      <point x="56" y="-24"/>
      <point x="18" y="-238" type="curve"/>
      <point x="168" y="-183" type="line"/>
      <point x="247" y="411" type="line" smooth="yes"/>
      <point x="266" y="585"/>
      <point x="321" y="663"/>
      <point x="368" y="663" type="curve" smooth="yes"/>
      <point x="401" y="663"/>
      <point x="414" y="645"/>
      <point x="414" y="603" type="curve" smooth="yes"/>
      <point x="414" y="568"/>
      <point x="444" y="545"/>
      <point x="490" y="545" type="curve" smooth="yes"/>
      <point x="568" y="545"/>
      <point x="585" y="585"/>
      <point x="585" y="625" type="curve" smooth="yes"/>
      <point x="583" y="681"/>
      <point x="512" y="700"/>
      <point x="406" y="700" type="curve" smooth="yes"/>
    </contour>
    <contour>
      <point x="50" y="430" type="line"/>
      <point x="35" y="389" type="line"/>
      <point x="114" y="389" type="line"/>
      <point x="122" y="430" type="line"/>
    </contour>
    <contour>
      <point x="246" y="430" type="line"/>
      <point x="240" y="389" type="line"/>
      <point x="298" y="389" type="line"/>
      <point x="316" y="405" type="line"/>
      <point x="316" y="430" type="line"/>
    </contour>
    <component base="dotlessj" xOffset="347"/>
  </outline>
</glyph>
<glyph name="j.ss01" format="1">
  <advance width="270"/>
  <outline>
    <contour>
      <point x="145" y="433"/>
      <point x="87" y="423"/>
      <point x="32" y="407" type="curve"/>
      <point x="37" y="368" type="line"/>
      <point x="41" y="369"/>
      <point x="48" y="370"/>
      <point x="53" y="370" type="curve" smooth="yes"/>
      <point x="67" y="370"/>
      <point x="83" y="367"/>
      <point x="83" y="345" type="curve" smooth="yes"/>
      <point x="83" y="323"/>
      <point x="77" y="285"/>
      <point x="68" y="223" type="curve" smooth="yes"/>
      <point x="40" y="24" type="line" smooth="yes"/>
      <point x="18" y="-171"/>
      <point x="10" y="-208"/>
      <point x="-51" y="-208" type="curve" smooth="yes"/>
      <point x="-72" y="-208"/>
      <point x="-97" y="-192"/>
      <point x="-110" y="-164" type="curve"/>
      <point x="-139" y="-179" type="line"/>
      <point x="-121" y="-219"/>
      <point x="-92" y="-245"/>
      <point x="-34" y="-245" type="curve" smooth="yes"/>
      <point x="97" y="-245"/>
      <point x="169" y="-97"/>
      <point x="193" y="93" type="curve" smooth="yes"/>
      <point x="215" y="269"/>
      <point x="237" y="376"/>
      <point x="237" y="401" type="curve" smooth="yes"/>
      <point x="237" y="429"/>
      <point x="217" y="433"/>
      <point x="193" y="433" type="curve" smooth="yes"/>
    </contour>
    <contour>
      <point x="135" y="661"/>
      <point x="94" y="631"/>
      <point x="94" y="584" type="curve" smooth="yes"/>
      <point x="94" y="549"/>
      <point x="124" y="526"/>
      <point x="170" y="526" type="curve" smooth="yes"/>
      <point x="224" y="526"/>
      <point x="265" y="555"/>
      <point x="265" y="604" type="curve" smooth="yes"/>
      <point x="265" y="639"/>
      <point x="234" y="661"/>
      <point x="188" y="661" type="curve" smooth="yes"/>
    </contour>
  </outline>
</glyph>
